<svg preserveAspectRatio="none" width="100%" height="100%" overflow="visible" style="display: block;" viewBox="0 0 20 20" fill="none" xmlns="http://www.w3.org/2000/svg">
<g id="add" clip-path="url(#clip0_0_134)">
<g id="Vector">
</g>
<path id="Vector_2" d="M15 10.8333H10.8333V15C10.8333 15.4583 10.4583 15.8333 10 15.8333C9.54167 15.8333 9.16667 15.4583 9.16667 15V10.8333H5C4.54167 10.8333 4.16667 10.4583 4.16667 10C4.16667 9.54167 4.54167 9.16667 5 9.16667H9.16667V5C9.16667 4.54167 9.54167 4.16667 10 4.16667C10.4583 4.16667 10.8333 4.54167 10.8333 5V9.16667H15C15.4583 9.16667 15.8333 9.54167 15.8333 10C15.8333 10.4583 15.4583 10.8333 15 10.8333Z" fill="var(--fill-0, #002B8F)"/>
</g>
<defs>
<clipPath id="clip0_0_134">
<rect width="20" height="20" fill="white"/>
</clipPath>
</defs>
</svg>
