<svg preserveAspectRatio="none" width="100%" height="100%" overflow="visible" style="display: block;" viewBox="0 0 22 22" fill="none" xmlns="http://www.w3.org/2000/svg">
<g id="add_comment">
<rect width="22" height="22" fill="#22468D"/>
<path id="Vector" d="M20.1667 3.66667C20.1667 2.65833 19.3417 1.83333 18.3333 1.83333H3.66667C2.65833 1.83333 1.83333 2.65833 1.83333 3.66667V14.6667C1.83333 15.675 2.65833 16.5 3.66667 16.5H16.5L20.1667 20.1667V3.66667ZM14.6667 10.0833H11.9167V12.8333C11.9167 13.3375 11.5042 13.75 11 13.75C10.4958 13.75 10.0833 13.3375 10.0833 12.8333V10.0833H7.33333C6.82917 10.0833 6.41667 9.67083 6.41667 9.16667C6.41667 8.6625 6.82917 8.25 7.33333 8.25H10.0833V5.5C10.0833 4.99583 10.4958 4.58333 11 4.58333C11.5042 4.58333 11.9167 4.99583 11.9167 5.5V8.25H14.6667C15.1708 8.25 15.5833 8.6625 15.5833 9.16667C15.5833 9.67083 15.1708 10.0833 14.6667 10.0833Z" fill="var(--fill-0, #F9F2E4)"/>
</g>
</svg>
