<svg preserveAspectRatio="none" width="100%" height="100%" overflow="visible" style="display: block;" viewBox="0 0 16 16" fill="none" xmlns="http://www.w3.org/2000/svg">
<g id="add">
<path id="Vector" d="M12 8.66667H8.66667V12C8.66667 12.3667 8.36667 12.6667 8 12.6667C7.63333 12.6667 7.33333 12.3667 7.33333 12V8.66667H4C3.63333 8.66667 3.33333 8.36667 3.33333 8C3.33333 7.63333 3.63333 7.33333 4 7.33333H7.33333V4C7.33333 3.63333 7.63333 3.33333 8 3.33333C8.36667 3.33333 8.66667 3.63333 8.66667 4V7.33333H12C12.3667 7.33333 12.6667 7.63333 12.6667 8C12.6667 8.36667 12.3667 8.66667 12 8.66667Z" fill="var(--fill-0, #002B8F)"/>
</g>
</svg>
