<svg preserveAspectRatio="none" width="100%" height="100%" overflow="visible" style="display: block;" viewBox="0 0 13 13" fill="none" xmlns="http://www.w3.org/2000/svg">
<g id="auto_awesome">
<path id="Vector" d="M10.3492 4.33333L10.7771 3.38542L11.7251 2.9575C11.9363 2.86 11.9363 2.56208 11.7251 2.46458L10.7771 2.03667L10.3492 1.08333C10.2517 0.872084 9.9538 0.872084 9.8563 1.08333L9.42839 2.03125L8.47505 2.45917C8.2638 2.55667 8.2638 2.85458 8.47505 2.95208L9.42297 3.38L9.85089 4.33333C9.94839 4.54458 10.2517 4.54458 10.3492 4.33333ZM6.03755 5.14583L5.1763 3.25C4.98672 2.8275 4.38005 2.8275 4.19047 3.25L3.32922 5.14583L1.43339 6.00708C1.01089 6.20208 1.01089 6.80333 1.43339 6.99292L3.32922 7.85417L4.19047 9.75C4.38547 10.1725 4.98672 10.1725 5.1763 9.75L6.03755 7.85417L7.93339 6.99292C8.35589 6.79792 8.35589 6.19667 7.93339 6.00708L6.03755 5.14583ZM9.85089 8.66667L9.42297 9.61458L8.47505 10.0425C8.2638 10.14 8.2638 10.4379 8.47505 10.5354L9.42297 10.9633L9.85089 11.9167C9.94839 12.1279 10.2463 12.1279 10.3438 11.9167L10.7717 10.9687L11.7251 10.5408C11.9363 10.4433 11.9363 10.1454 11.7251 10.0479L10.7771 9.62L10.3492 8.66667C10.2517 8.45542 9.94839 8.45542 9.85089 8.66667Z" fill="var(--fill-0, #B8C7EB)"/>
</g>
</svg>
