<svg preserveAspectRatio="none" width="100%" height="100%" overflow="visible" style="display: block;" viewBox="0 0 13 13" fill="none" xmlns="http://www.w3.org/2000/svg">
<g id="event">
<path id="Vector" d="M8.66667 7.04167H7.04167C6.74375 7.04167 6.5 7.28542 6.5 7.58333V9.20833C6.5 9.50625 6.74375 9.75 7.04167 9.75H8.66667C8.96458 9.75 9.20833 9.50625 9.20833 9.20833V7.58333C9.20833 7.28542 8.96458 7.04167 8.66667 7.04167ZM8.66667 1.625V2.16667H4.33333V1.625C4.33333 1.32708 4.08958 1.08333 3.79167 1.08333C3.49375 1.08333 3.25 1.32708 3.25 1.625V2.16667H2.70833C2.10708 2.16667 1.63042 2.65417 1.63042 3.25L1.625 10.8333C1.625 11.4292 2.10708 11.9167 2.70833 11.9167H10.2917C10.8875 11.9167 11.375 11.4292 11.375 10.8333V3.25C11.375 2.65417 10.8875 2.16667 10.2917 2.16667H9.75V1.625C9.75 1.32708 9.50625 1.08333 9.20833 1.08333C8.91042 1.08333 8.66667 1.32708 8.66667 1.625ZM9.75 10.8333H3.25C2.95208 10.8333 2.70833 10.5896 2.70833 10.2917V4.875H10.2917V10.2917C10.2917 10.5896 10.0479 10.8333 9.75 10.8333Z" fill="var(--fill-0, #002B8F)"/>
</g>
</svg>
