<svg preserveAspectRatio="none" width="100%" height="100%" overflow="visible" style="display: block;" viewBox="0 0 13 13" fill="none" xmlns="http://www.w3.org/2000/svg">
<g id="medication">
<g id="Vector">
<path d="M9.20833 1.625H3.79167C3.49375 1.625 3.25 1.86875 3.25 2.16667C3.25 2.46458 3.49375 2.70833 3.79167 2.70833H9.20833C9.50625 2.70833 9.75 2.46458 9.75 2.16667C9.75 1.86875 9.50625 1.625 9.20833 1.625Z" fill="var(--fill-0, #002B8F)"/>
<path d="M9.20833 3.25H3.79167C3.19583 3.25 2.70833 3.7375 2.70833 4.33333V10.2917C2.70833 10.8875 3.19583 11.375 3.79167 11.375H9.20833C9.80417 11.375 10.2917 10.8875 10.2917 10.2917V4.33333C10.2917 3.7375 9.80417 3.25 9.20833 3.25ZM7.85417 8.125H7.3125V8.66667C7.3125 9.11625 6.94958 9.47917 6.5 9.47917C6.05042 9.47917 5.6875 9.11625 5.6875 8.66667V8.125H5.14583C4.69625 8.125 4.33333 7.76208 4.33333 7.3125C4.33333 6.86292 4.69625 6.5 5.14583 6.5H5.6875V5.95833C5.6875 5.50875 6.05042 5.14583 6.5 5.14583C6.94958 5.14583 7.3125 5.50875 7.3125 5.95833V6.5H7.85417C8.30375 6.5 8.66667 6.86292 8.66667 7.3125C8.66667 7.76208 8.30375 8.125 7.85417 8.125Z" fill="var(--fill-0, #002B8F)"/>
</g>
</g>
</svg>
