<svg preserveAspectRatio="none" width="100%" height="100%" overflow="visible" style="display: block;" viewBox="0 0 14 14" fill="none" xmlns="http://www.w3.org/2000/svg">
<g id="auto_awesome">
<path id="Vector" d="M11.1453 4.66667L11.6061 3.64583L12.627 3.185C12.8545 3.08 12.8545 2.75917 12.627 2.65417L11.6061 2.19333L11.1453 1.16667C11.0403 0.939167 10.7195 0.939167 10.6145 1.16667L10.1536 2.1875L9.12698 2.64833C8.89948 2.75333 8.89948 3.07417 9.12698 3.17917L10.1478 3.64L10.6086 4.66667C10.7136 4.89417 11.0403 4.89417 11.1453 4.66667ZM6.50198 5.54167L5.57448 3.5C5.37031 3.045 4.71698 3.045 4.51281 3.5L3.58531 5.54167L1.54365 6.46917C1.08865 6.67917 1.08865 7.32667 1.54365 7.53083L3.58531 8.45833L4.51281 10.5C4.72281 10.955 5.37031 10.955 5.57448 10.5L6.50198 8.45833L8.54365 7.53083C8.99865 7.32083 8.99865 6.67333 8.54365 6.46917L6.50198 5.54167ZM10.6086 9.33333L10.1478 10.3542L9.12698 10.815C8.89948 10.92 8.89948 11.2408 9.12698 11.3458L10.1478 11.8067L10.6086 12.8333C10.7136 13.0608 11.0345 13.0608 11.1395 12.8333L11.6003 11.8125L12.627 11.3517C12.8545 11.2467 12.8545 10.9258 12.627 10.8208L11.6061 10.36L11.1453 9.33333C11.0403 9.10583 10.7136 9.10583 10.6086 9.33333Z" fill="var(--fill-0, #002B8F)"/>
</g>
</svg>
