<svg preserveAspectRatio="none" width="100%" height="100%" overflow="visible" style="display: block;" viewBox="0 0 28 28" fill="none" xmlns="http://www.w3.org/2000/svg">
<g id="close" clip-path="url(#clip0_0_202)">
<g id="Vector">
</g>
<path id="Vector_2" d="M21.35 6.66167C20.895 6.20667 20.16 6.20667 19.705 6.66167L14 12.355L8.295 6.65C7.84 6.195 7.105 6.195 6.65 6.65C6.195 7.105 6.195 7.84 6.65 8.295L12.355 14L6.65 19.705C6.195 20.16 6.195 20.895 6.65 21.35C7.105 21.805 7.84 21.805 8.295 21.35L14 15.645L19.705 21.35C20.16 21.805 20.895 21.805 21.35 21.35C21.805 20.895 21.805 20.16 21.35 19.705L15.645 14L21.35 8.295C21.7933 7.85167 21.7933 7.105 21.35 6.66167V6.66167Z" fill="var(--fill-0, #FCF8F1)"/>
</g>
<defs>
<clipPath id="clip0_0_202">
<rect width="28" height="28" fill="white"/>
</clipPath>
</defs>
</svg>
