<svg preserveAspectRatio="none" width="100%" height="100%" overflow="visible" style="display: block;" viewBox="0 0 15 15" fill="none" xmlns="http://www.w3.org/2000/svg">
<g id="comment">
<path id="Vector" d="M13.7437 2.5C13.7437 1.8125 13.1875 1.25 12.5 1.25H2.5C1.8125 1.25 1.25 1.8125 1.25 2.5V10C1.25 10.6875 1.8125 11.25 2.5 11.25H11.25L13.75 13.75L13.7437 2.5ZM10.625 8.75H4.375C4.03125 8.75 3.75 8.46875 3.75 8.125C3.75 7.78125 4.03125 7.5 4.375 7.5H10.625C10.9688 7.5 11.25 7.78125 11.25 8.125C11.25 8.46875 10.9688 8.75 10.625 8.75ZM10.625 6.875H4.375C4.03125 6.875 3.75 6.59375 3.75 6.25C3.75 5.90625 4.03125 5.625 4.375 5.625H10.625C10.9688 5.625 11.25 5.90625 11.25 6.25C11.25 6.59375 10.9688 6.875 10.625 6.875ZM10.625 5H4.375C4.03125 5 3.75 4.71875 3.75 4.375C3.75 4.03125 4.03125 3.75 4.375 3.75H10.625C10.9688 3.75 11.25 4.03125 11.25 4.375C11.25 4.71875 10.9688 5 10.625 5Z" fill="var(--fill-0, #737373)"/>
</g>
</svg>
