<svg preserveAspectRatio="none" width="100%" height="100%" overflow="visible" style="display: block;" viewBox="0 0 18 18" fill="none" xmlns="http://www.w3.org/2000/svg">
<g id="description">
<path id="Vector" d="M10.9425 1.9425C10.6575 1.6575 10.275 1.5 9.8775 1.5H4.5C3.675 1.5 3 2.175 3 3V15C3 15.825 3.6675 16.5 4.4925 16.5H13.5C14.325 16.5 15 15.825 15 15V6.6225C15 6.225 14.8425 5.8425 14.5575 5.565L10.9425 1.9425ZM11.25 13.5H6.75C6.3375 13.5 6 13.1625 6 12.75C6 12.3375 6.3375 12 6.75 12H11.25C11.6625 12 12 12.3375 12 12.75C12 13.1625 11.6625 13.5 11.25 13.5ZM11.25 10.5H6.75C6.3375 10.5 6 10.1625 6 9.75C6 9.3375 6.3375 9 6.75 9H11.25C11.6625 9 12 9.3375 12 9.75C12 10.1625 11.6625 10.5 11.25 10.5ZM9.75 6V2.625L13.875 6.75H10.5C10.0875 6.75 9.75 6.4125 9.75 6Z" fill="var(--fill-0, #002B8F)"/>
</g>
</svg>
