<svg preserveAspectRatio="none" width="100%" height="100%" overflow="visible" style="display: block;" viewBox="0 0 22 22" fill="none" xmlns="http://www.w3.org/2000/svg">
<g id="description">
<path id="Vector" d="M13.3742 2.37417C13.0258 2.02583 12.5583 1.83333 12.0725 1.83333H5.5C4.49167 1.83333 3.66667 2.65833 3.66667 3.66667V18.3333C3.66667 19.3417 4.4825 20.1667 5.49083 20.1667H16.5C17.5083 20.1667 18.3333 19.3417 18.3333 18.3333V8.09417C18.3333 7.60833 18.1408 7.14083 17.7925 6.80167L13.3742 2.37417ZM13.75 16.5H8.25C7.74583 16.5 7.33333 16.0875 7.33333 15.5833C7.33333 15.0792 7.74583 14.6667 8.25 14.6667H13.75C14.2542 14.6667 14.6667 15.0792 14.6667 15.5833C14.6667 16.0875 14.2542 16.5 13.75 16.5ZM13.75 12.8333H8.25C7.74583 12.8333 7.33333 12.4208 7.33333 11.9167C7.33333 11.4125 7.74583 11 8.25 11H13.75C14.2542 11 14.6667 11.4125 14.6667 11.9167C14.6667 12.4208 14.2542 12.8333 13.75 12.8333ZM11.9167 7.33333V3.20833L16.9583 8.25H12.8333C12.3292 8.25 11.9167 7.8375 11.9167 7.33333Z" fill="var(--fill-0, #002B8F)"/>
</g>
</svg>
