<svg preserveAspectRatio="none" width="100%" height="100%" overflow="visible" style="display: block;" viewBox="0 0 18 18" fill="none" xmlns="http://www.w3.org/2000/svg">
<g id="directions_run">
<path id="Vector" d="M10.8451 3.9375C11.6701 3.9375 12.3451 3.2625 12.3451 2.4375C12.3451 1.6125 11.6701 0.9375 10.8451 0.9375C10.0201 0.9375 9.34508 1.6125 9.34508 2.4375C9.34508 3.2625 10.0201 3.9375 10.8451 3.9375ZM8.46758 12.9375L8.89508 11.0625L10.4701 12.5625V16.3125C10.4701 16.725 10.8076 17.0625 11.2201 17.0625C11.6326 17.0625 11.9701 16.725 11.9701 16.3125V12.0825C11.9701 11.67 11.8051 11.28 11.5051 10.995L10.3951 9.9375L10.8451 7.6875C11.6476 8.6175 12.8101 9.285 14.1151 9.495C14.5651 9.5625 14.9701 9.2025 14.9701 8.745C14.9701 8.3775 14.7001 8.07 14.3326 8.01C13.1926 7.8225 12.2476 7.1475 11.7451 6.2625L10.9951 5.0625C10.6951 4.6125 10.2451 4.3125 9.72008 4.3125C9.49508 4.3125 9.34508 4.3875 9.12008 4.3875L6.13508 5.6475C5.58008 5.8875 5.22008 6.4275 5.22008 7.035V8.8125C5.22008 9.225 5.55758 9.5625 5.97008 9.5625C6.38258 9.5625 6.72008 9.225 6.72008 8.8125V7.0125L8.07008 6.4875L6.87008 12.5625L3.93008 11.9625C3.52508 11.88 3.12758 12.1425 3.04508 12.5475V12.5775C2.96258 12.9825 3.22508 13.38 3.63008 13.4625L6.71258 14.0775C7.50758 14.235 8.28758 13.7325 8.46758 12.9375Z" fill="var(--fill-0, #002B8F)"/>
</g>
</svg>
