<svg preserveAspectRatio="none" width="100%" height="100%" overflow="visible" style="display: block;" viewBox="0 0 16 16" fill="none" xmlns="http://www.w3.org/2000/svg">
<g id="explore">
<path id="Vector" d="M8 7.26667C7.59333 7.26667 7.26667 7.59333 7.26667 8C7.26667 8.40667 7.59333 8.73333 8 8.73333C8.40667 8.73333 8.73333 8.40667 8.73333 8C8.73333 7.59333 8.40667 7.26667 8 7.26667ZM8 1.33333C4.32 1.33333 1.33333 4.32 1.33333 8C1.33333 11.68 4.32 14.6667 8 14.6667C11.68 14.6667 14.6667 11.68 14.6667 8C14.6667 4.32 11.68 1.33333 8 1.33333ZM9.46 9.46L4 12L6.54 6.54L12 4L9.46 9.46Z" fill="var(--fill-0, #737373)"/>
</g>
</svg>
