<svg preserveAspectRatio="none" width="100%" height="100%" overflow="visible" style="display: block;" viewBox="0 0 15 15" fill="none" xmlns="http://www.w3.org/2000/svg">
<g id="groups">
<path id="Vector" d="M7.5 7.96875C8.51875 7.96875 9.41875 8.2125 10.15 8.53125C10.825 8.83125 11.25 9.50625 11.25 10.2375V10.625C11.25 10.9688 10.9688 11.25 10.625 11.25H4.375C4.03125 11.25 3.75 10.9688 3.75 10.625V10.2437C3.75 9.50625 4.175 8.83125 4.85 8.5375C5.58125 8.2125 6.48125 7.96875 7.5 7.96875ZM2.5 8.125C3.1875 8.125 3.75 7.5625 3.75 6.875C3.75 6.1875 3.1875 5.625 2.5 5.625C1.8125 5.625 1.25 6.1875 1.25 6.875C1.25 7.5625 1.8125 8.125 2.5 8.125ZM3.20625 8.8125C2.975 8.775 2.74375 8.75 2.5 8.75C1.88125 8.75 1.29375 8.88125 0.7625 9.1125C0.3 9.3125 0 9.7625 0 10.2688V10.625C0 10.9688 0.28125 11.25 0.625 11.25H2.8125V10.2437C2.8125 9.725 2.95625 9.2375 3.20625 8.8125ZM12.5 8.125C13.1875 8.125 13.75 7.5625 13.75 6.875C13.75 6.1875 13.1875 5.625 12.5 5.625C11.8125 5.625 11.25 6.1875 11.25 6.875C11.25 7.5625 11.8125 8.125 12.5 8.125ZM15 10.2688C15 9.7625 14.7 9.3125 14.2375 9.1125C13.7063 8.88125 13.1188 8.75 12.5 8.75C12.2563 8.75 12.025 8.775 11.7938 8.8125C12.0438 9.2375 12.1875 9.725 12.1875 10.2437V11.25H14.375C14.7188 11.25 15 10.9688 15 10.625V10.2688ZM7.5 3.75C8.5375 3.75 9.375 4.5875 9.375 5.625C9.375 6.6625 8.5375 7.5 7.5 7.5C6.4625 7.5 5.625 6.6625 5.625 5.625C5.625 4.5875 6.4625 3.75 7.5 3.75Z" fill="var(--fill-0, white)"/>
</g>
</svg>
