<svg preserveAspectRatio="none" width="100%" height="100%" overflow="visible" style="display: block;" viewBox="0 0 22 22" fill="none" xmlns="http://www.w3.org/2000/svg">
<g id="groups">
<path id="Vector" d="M11 11.6875C12.4942 11.6875 13.8142 12.045 14.8867 12.5125C15.8767 12.9525 16.5 13.9425 16.5 15.015V15.5833C16.5 16.0875 16.0875 16.5 15.5833 16.5H6.41667C5.9125 16.5 5.5 16.0875 5.5 15.5833V15.0242C5.5 13.9425 6.12333 12.9525 7.11333 12.5217C8.18583 12.045 9.50583 11.6875 11 11.6875ZM3.66667 11.9167C4.675 11.9167 5.5 11.0917 5.5 10.0833C5.5 9.075 4.675 8.25 3.66667 8.25C2.65833 8.25 1.83333 9.075 1.83333 10.0833C1.83333 11.0917 2.65833 11.9167 3.66667 11.9167ZM4.7025 12.925C4.36333 12.87 4.02417 12.8333 3.66667 12.8333C2.75917 12.8333 1.8975 13.0258 1.11833 13.365C0.44 13.6583 0 14.3183 0 15.0608V15.5833C0 16.0875 0.4125 16.5 0.916667 16.5H4.125V15.0242C4.125 14.2633 4.33583 13.5483 4.7025 12.925ZM18.3333 11.9167C19.3417 11.9167 20.1667 11.0917 20.1667 10.0833C20.1667 9.075 19.3417 8.25 18.3333 8.25C17.325 8.25 16.5 9.075 16.5 10.0833C16.5 11.0917 17.325 11.9167 18.3333 11.9167ZM22 15.0608C22 14.3183 21.56 13.6583 20.8817 13.365C20.1025 13.0258 19.2408 12.8333 18.3333 12.8333C17.9758 12.8333 17.6367 12.87 17.2975 12.925C17.6642 13.5483 17.875 14.2633 17.875 15.0242V16.5H21.0833C21.5875 16.5 22 16.0875 22 15.5833V15.0608ZM11 5.5C12.5217 5.5 13.75 6.72833 13.75 8.25C13.75 9.77167 12.5217 11 11 11C9.47833 11 8.25 9.77167 8.25 8.25C8.25 6.72833 9.47833 5.5 11 5.5Z" fill="var(--fill-0, white)"/>
</g>
</svg>
