<svg preserveAspectRatio="none" width="100%" height="100%" overflow="visible" style="display: block;" viewBox="0 0 22 22" fill="none" xmlns="http://www.w3.org/2000/svg">
<g id="history">
<path id="Vector" d="M12.287 2.7516C7.62119 2.62327 3.79869 6.37243 3.79869 11.0016H2.15785C1.74535 11.0016 1.54369 11.4966 1.83702 11.7808L4.39452 14.3474C4.57785 14.5308 4.86202 14.5308 5.04535 14.3474L7.60285 11.7808C7.88702 11.4966 7.68535 11.0016 7.27285 11.0016H5.63202C5.63202 7.4266 8.54702 4.5391 12.1404 4.58493C15.5504 4.63077 18.4195 7.49993 18.4654 10.9099C18.5112 14.4941 15.6237 17.4183 12.0487 17.4183C10.5729 17.4183 9.20702 16.9141 8.12535 16.0616C7.75869 15.7774 7.24535 15.8049 6.91535 16.1349C6.53035 16.5199 6.55785 17.1708 6.98869 17.5008C8.38202 18.6008 10.1329 19.2516 12.0487 19.2516C16.6779 19.2516 20.427 15.4291 20.2987 10.7633C20.1795 6.4641 16.5862 2.87077 12.287 2.7516ZM11.8195 7.33493C11.4437 7.33493 11.132 7.6466 11.132 8.02243V11.3958C11.132 11.7166 11.3062 12.0191 11.5812 12.1841L14.4412 13.8799C14.7712 14.0724 15.1929 13.9624 15.3854 13.6416C15.5779 13.3116 15.4679 12.8899 15.147 12.6974L12.507 11.1299V8.01327C12.507 7.6466 12.1954 7.33493 11.8195 7.33493Z" fill="var(--fill-0, #002B8F)"/>
</g>
</svg>
