<svg preserveAspectRatio="none" width="100%" height="100%" overflow="visible" style="display: block;" viewBox="0 0 18 18" fill="none" xmlns="http://www.w3.org/2000/svg">
<g id="history" clip-path="url(#clip0_0_126)">
<g id="Vector">
</g>
<path id="Vector_2" d="M9.945 2.25C6.1275 2.145 3 5.2125 3 9H1.6575C1.32 9 1.155 9.405 1.395 9.6375L3.4875 11.7375C3.6375 11.8875 3.87 11.8875 4.02 11.7375L6.1125 9.6375C6.345 9.405 6.18 9 5.8425 9H4.5C4.5 6.075 6.885 3.7125 9.825 3.75C12.615 3.7875 14.9625 6.135 15 8.925C15.0375 11.8575 12.675 14.25 9.75 14.25C8.5425 14.25 7.425 13.8375 6.54 13.14C6.24 12.9075 5.82 12.93 5.55 13.2C5.235 13.515 5.2575 14.0475 5.61 14.3175C6.75 15.2175 8.1825 15.75 9.75 15.75C13.5375 15.75 16.605 12.6225 16.5 8.805C16.4025 5.2875 13.4625 2.3475 9.945 2.25ZM9.5625 6C9.255 6 9 6.255 9 6.5625V9.3225C9 9.585 9.1425 9.8325 9.3675 9.9675L11.7075 11.355C11.9775 11.5125 12.3225 11.4225 12.48 11.16C12.6375 10.89 12.5475 10.545 12.285 10.3875L10.125 9.105V6.555C10.125 6.255 9.87 6 9.5625 6Z" fill="var(--fill-0, #706B5E)"/>
</g>
<defs>
<clipPath id="clip0_0_126">
<rect width="18" height="18" fill="white"/>
</clipPath>
</defs>
</svg>
