<svg preserveAspectRatio="none" width="100%" height="100%" overflow="visible" style="display: block;" viewBox="0 0 66.6613 11.3362" fill="none" xmlns="http://www.w3.org/2000/svg">
<g id="Group">
<g id="Battery">
<g id="Border" opacity="0.35">
</g>
<g id="Cap" opacity="0.4">
</g>
<rect id="Capacity" x="44.3333" y="2.00293" width="18" height="7.33333" rx="1.33333" fill="var(--fill-0, #F9F2E4)"/>
</g>
<path id="Wifi" d="M27.4482 8.42676C28.7289 7.34449 30.6051 7.34449 31.8857 8.42676C31.9501 8.48497 31.9875 8.56758 31.9893 8.6543C31.9909 8.74093 31.9564 8.82406 31.8945 8.88477L29.8896 10.9072C29.8309 10.9666 29.7506 11 29.667 11C29.5834 11 29.5031 10.9666 29.4443 10.9072L27.4385 8.88477C27.3769 8.82407 27.343 8.74072 27.3447 8.6543C27.3466 8.56762 27.3839 8.48492 27.4482 8.42676ZM24.7725 5.72852C27.5315 3.16436 31.8043 3.16457 34.5635 5.72852C34.6257 5.7886 34.6622 5.87154 34.6631 5.95801C34.664 6.04454 34.6294 6.12807 34.5684 6.18945L33.4092 7.35937C33.2897 7.47885 33.0972 7.48149 32.9746 7.36523C32.0685 6.54546 30.8893 6.09172 29.667 6.0918C28.4455 6.09233 27.2677 6.54608 26.3623 7.36523C26.2398 7.48156 26.0472 7.47883 25.9277 7.35937L24.7686 6.18945C24.7074 6.12815 24.673 6.04457 24.6738 5.95801C24.6747 5.87154 24.7102 5.78859 24.7725 5.72852ZM22.0967 3.03906C26.3285 -1.01301 33.0044 -1.01285 37.2363 3.03906C37.2976 3.09926 37.3325 3.18173 37.333 3.26758C37.3334 3.35334 37.2997 3.43622 37.2393 3.49707L36.0791 4.66699C35.9595 4.78709 35.765 4.78817 35.6436 4.66992C34.0312 3.13852 31.8916 2.28428 29.667 2.28418C27.4421 2.28419 25.302 3.13829 23.6895 4.66992C23.5682 4.78829 23.3744 4.7871 23.2549 4.66699L22.0938 3.49707C22.0333 3.43619 21.9995 3.35331 22 3.26758C22.0006 3.18173 22.0354 3.09922 22.0967 3.03906Z" fill="var(--fill-0, #F9F2E4)"/>
<path id="Cellular Connection" d="M2 7.00299C2.55228 7.00299 3 7.45071 3 8.00299V10.003C3 10.5553 2.55228 11.003 2 11.003H1C0.447715 11.003 0 10.5553 0 10.003V8.00299C0 7.45071 0.447715 7.00299 1 7.00299H2ZM6.66699 5.00299C7.21911 5.00319 7.66699 5.45083 7.66699 6.00299V10.003C7.66699 10.5552 7.21911 11.0028 6.66699 11.003H5.66699C5.11471 11.003 4.66699 10.5553 4.66699 10.003V6.00299C4.66699 5.45071 5.11471 5.00299 5.66699 5.00299H6.66699ZM16 0.335999C16.5523 0.335999 17 0.783714 17 1.336V10.003C16.9998 10.5551 16.5522 11.003 16 11.003H15C14.4478 11.003 14.0002 10.5551 14 10.003V1.336C14 0.783714 14.4477 0.335999 15 0.335999H16ZM11.333 2.66901C11.8853 2.66901 12.333 3.11672 12.333 3.66901V10.002C12.333 10.5543 11.8853 11.002 11.333 11.002H10.333C9.78089 11.0018 9.33301 10.5542 9.33301 10.002V3.66901C9.33301 3.11684 9.78089 2.6692 10.333 2.66901H11.333Z" fill="var(--fill-0, #F9F2E4)"/>
</g>
</svg>
