<svg preserveAspectRatio="none" width="100%" height="100%" overflow="visible" style="display: block;" viewBox="0 0 18 18" fill="none" xmlns="http://www.w3.org/2000/svg">
<g id="mic">
<path id="Vector" d="M8.9992 10.875C10.2442 10.875 11.2492 9.87 11.2492 8.625V4.125C11.2492 2.88 10.2442 1.875 8.9992 1.875C7.7542 1.875 6.7492 2.88 6.7492 4.125V8.625C6.7492 9.87 7.7542 10.875 8.9992 10.875ZM13.4317 8.625C13.0642 8.625 12.7567 8.895 12.6967 9.2625C12.3892 11.025 10.8517 12.375 8.9992 12.375C7.1467 12.375 5.6092 11.025 5.3017 9.2625C5.2417 8.895 4.9342 8.625 4.5667 8.625C4.1092 8.625 3.7492 9.03 3.8167 9.48C4.1842 11.73 5.9842 13.4925 8.2492 13.815V15.375C8.2492 15.7875 8.5867 16.125 8.9992 16.125C9.4117 16.125 9.7492 15.7875 9.7492 15.375V13.815C12.0142 13.4925 13.8142 11.73 14.1817 9.48C14.2567 9.03 13.8892 8.625 13.4317 8.625Z" fill="var(--fill-0, white)"/>
</g>
</svg>
