<svg preserveAspectRatio="none" width="100%" height="100%" overflow="visible" style="display: block;" viewBox="0 0 18.325 13.8708" fill="none" xmlns="http://www.w3.org/2000/svg">
<g id="Group">
<path id="Vector" d="M13.75 0C12.125 0 10.375 0.333333 9.16667 1.25C7.95833 0.333333 6.20833 0 4.58333 0C3.375 0 2.09167 0.183333 1.01667 0.658333C0.408333 0.933333 0 1.525 0 2.2V11.6C0 12.6833 1.01667 13.4833 2.06667 13.2167C2.88333 13.0083 3.75 12.9167 4.58333 12.9167C5.88333 12.9167 7.26667 13.1333 8.38333 13.6833C8.88333 13.9333 9.45 13.9333 9.94167 13.6833C11.0583 13.125 12.4417 12.9167 13.7417 12.9167C14.575 12.9167 15.4417 13.0083 16.2583 13.2167C17.3083 13.4917 18.325 12.6917 18.325 11.6V2.2C18.325 1.525 17.9167 0.933333 17.3083 0.658333C16.2417 0.183333 14.9583 0 13.75 0ZM16.6667 10.6083C16.6667 11.1333 16.1833 11.5167 15.6667 11.425C15.0417 11.3083 14.3917 11.2583 13.75 11.2583C12.3333 11.2583 10.2917 11.8 9.16667 12.5083V2.91667C10.2917 2.20833 12.3333 1.66667 13.75 1.66667C14.5167 1.66667 15.275 1.74167 16 1.9C16.3833 1.98333 16.6667 2.325 16.6667 2.71667V10.6083Z" fill="var(--fill-0, #002B8F)"/>
<path id="Vector_2" d="M10.8167 5.425C10.55 5.425 10.3083 5.25833 10.225 4.99167C10.1167 4.66667 10.3 4.30833 10.625 4.20833C11.9083 3.79167 13.5667 3.65833 15.0917 3.83333C15.4333 3.875 15.6833 4.18333 15.6417 4.525C15.6 4.86667 15.2917 5.11667 14.95 5.075C13.6 4.91667 12.125 5.04167 11.0083 5.4C10.9417 5.40833 10.875 5.425 10.8167 5.425Z" fill="var(--fill-0, #002B8F)"/>
<path id="Vector_3" d="M10.8167 7.64167C10.55 7.64167 10.3083 7.475 10.225 7.20833C10.1167 6.88333 10.3 6.525 10.625 6.425C11.9 6.00833 13.5667 5.875 15.0917 6.05C15.4333 6.09167 15.6833 6.4 15.6417 6.74167C15.6 7.08333 15.2917 7.33333 14.95 7.29167C13.6 7.13333 12.125 7.25833 11.0083 7.61667C10.9417 7.63333 10.875 7.64167 10.8167 7.64167Z" fill="var(--fill-0, #002B8F)"/>
<path id="Vector_4" d="M10.8167 9.85833C10.55 9.85833 10.3083 9.69167 10.225 9.425C10.1167 9.1 10.3 8.74167 10.625 8.64167C11.9 8.225 13.5667 8.09167 15.0917 8.26667C15.4333 8.30833 15.6833 8.61667 15.6417 8.95833C15.6 9.3 15.2917 9.54167 14.95 9.50833C13.6 9.35 12.125 9.475 11.0083 9.83333C10.9417 9.85 10.875 9.85833 10.8167 9.85833Z" fill="var(--fill-0, #002B8F)"/>
</g>
</svg>
