<svg preserveAspectRatio="none" width="100%" height="100%" overflow="visible" style="display: block;" viewBox="0 0 18 18" fill="none" xmlns="http://www.w3.org/2000/svg">
<g id="auto_awesome">
<path id="Vector" d="M14.3297 6L14.9222 4.6875L16.2347 4.095C16.5272 3.96 16.5272 3.5475 16.2347 3.4125L14.9222 2.82L14.3297 1.5C14.1947 1.2075 13.7822 1.2075 13.6472 1.5L13.0547 2.8125L11.7347 3.405C11.4422 3.54 11.4422 3.9525 11.7347 4.0875L13.0472 4.68L13.6397 6C13.7747 6.2925 14.1947 6.2925 14.3297 6ZM8.35969 7.125L7.16719 4.5C6.90469 3.915 6.06469 3.915 5.80219 4.5L4.60969 7.125L1.98469 8.3175C1.39969 8.5875 1.39969 9.42 1.98469 9.6825L4.60969 10.875L5.80219 13.5C6.07219 14.085 6.90469 14.085 7.16719 13.5L8.35969 10.875L10.9847 9.6825C11.5697 9.4125 11.5697 8.58 10.9847 8.3175L8.35969 7.125ZM13.6397 12L13.0472 13.3125L11.7347 13.905C11.4422 14.04 11.4422 14.4525 11.7347 14.5875L13.0472 15.18L13.6397 16.5C13.7747 16.7925 14.1872 16.7925 14.3222 16.5L14.9147 15.1875L16.2347 14.595C16.5272 14.46 16.5272 14.0475 16.2347 13.9125L14.9222 13.32L14.3297 12C14.1947 11.7075 13.7747 11.7075 13.6397 12Z" fill="var(--fill-0, #002B8F)"/>
</g>
</svg>
