<svg preserveAspectRatio="none" width="100%" height="100%" overflow="visible" style="display: block;" viewBox="0 0 16 16" fill="none" xmlns="http://www.w3.org/2000/svg">
<g id="info">
<path id="Vector" d="M8 1.33333C4.32 1.33333 1.33333 4.32 1.33333 8C1.33333 11.68 4.32 14.6667 8 14.6667C11.68 14.6667 14.6667 11.68 14.6667 8C14.6667 4.32 11.68 1.33333 8 1.33333ZM8 11.3333C7.63333 11.3333 7.33333 11.0333 7.33333 10.6667V8C7.33333 7.63333 7.63333 7.33333 8 7.33333C8.36667 7.33333 8.66667 7.63333 8.66667 8V10.6667C8.66667 11.0333 8.36667 11.3333 8 11.3333ZM8.66667 6H7.33333V4.66667H8.66667V6Z" fill="var(--fill-0, #002B8F)"/>
</g>
</svg>
