<svg preserveAspectRatio="none" width="100%" height="100%" overflow="visible" style="display: block;" viewBox="0 0 20 20" fill="none" xmlns="http://www.w3.org/2000/svg">
<g id="insights">
<g id="Vector">
<path d="M17.5 7.08333C16.2917 7.08333 15.6167 8.28333 15.8917 9.175L12.9333 12.1417C12.6833 12.0667 12.3167 12.0667 12.0667 12.1417L9.94167 10.0167C10.225 9.125 9.55 7.91667 8.33333 7.91667C7.125 7.91667 6.44167 9.11667 6.725 10.0167L2.925 13.8083C2.03333 13.5333 0.833333 14.2083 0.833333 15.4167C0.833333 16.3333 1.58333 17.0833 2.5 17.0833C3.70833 17.0833 4.38333 15.8833 4.10833 14.9917L7.9 11.1917C8.15 11.2667 8.51667 11.2667 8.76667 11.1917L10.8917 13.3167C10.6083 14.2083 11.2833 15.4167 12.5 15.4167C13.7083 15.4167 14.3917 14.2167 14.1083 13.3167L17.075 10.3583C17.9667 10.6333 19.1667 9.95833 19.1667 8.75C19.1667 7.83333 18.4167 7.08333 17.5 7.08333Z" fill="var(--fill-0, #002B8F)"/>
<path d="M12.5 7.91667L13.2833 6.19167L15 5.41667L13.2833 4.64167L12.5 2.91667L11.7333 4.64167L10 5.41667L11.7333 6.19167L12.5 7.91667Z" fill="var(--fill-0, #002B8F)"/>
<path d="M2.91667 9.58333L3.33333 7.91667L5 7.5L3.33333 7.08333L2.91667 5.41667L2.5 7.08333L0.833333 7.5L2.5 7.91667L2.91667 9.58333Z" fill="var(--fill-0, #002B8F)"/>
</g>
</g>
</svg>
