<svg preserveAspectRatio="none" width="100%" height="100%" overflow="visible" style="display: block;" viewBox="0 0 22 22" fill="none" xmlns="http://www.w3.org/2000/svg">
<g id="ios_share">
<path d="M16.5 7.23708H14.6667C14.1625 7.23708 13.75 7.64958 13.75 8.15375C13.75 8.65792 14.1625 9.07042 14.6667 9.07042H16.5V19.1537H5.5V9.07042H7.33333C7.8375 9.07042 8.25 8.65792 8.25 8.15375C8.25 7.64958 7.8375 7.23708 7.33333 7.23708H5.5C4.49167 7.23708 3.66667 8.06208 3.66667 9.07042V19.1537C3.66667 20.1621 4.49167 20.9871 5.5 20.9871H16.5C17.5083 20.9871 18.3333 20.1621 18.3333 19.1537V9.07042C18.3333 8.06208 17.5083 7.23708 16.5 7.23708Z" fill="var(--fill-0, #141419)"/>
<path d="M11 14.5704C11.5042 14.5704 11.9167 14.1579 11.9167 13.6537V4.48708H13.5575C13.97 4.48708 14.1717 3.99208 13.8783 3.70792L11.3208 1.15042C11.1375 0.967084 10.8533 0.967084 10.67 1.15042L8.1125 3.70792C7.82833 3.99208 8.03 4.48708 8.4425 4.48708H10.0833V13.6537C10.0833 14.1579 10.4958 14.5704 11 14.5704Z" fill="var(--fill-0, #141419)"/>
</g>
</svg>
