<svg preserveAspectRatio="none" width="100%" height="100%" overflow="visible" style="display: block;" viewBox="0 0 16 16" fill="none" xmlns="http://www.w3.org/2000/svg">
<g id="menu_book">
<g id="Vector">
<path d="M11.67 2.45167C10.37 2.45167 8.97 2.71833 8.00333 3.45167C7.03667 2.71833 5.63667 2.45167 4.33667 2.45167C3.37 2.45167 2.34333 2.59833 1.48333 2.97833C0.996667 3.19833 0.67 3.67167 0.67 4.21167V11.7317C0.67 12.5983 1.48333 13.2383 2.32333 13.025C2.97667 12.8583 3.67 12.785 4.33667 12.785C5.37667 12.785 6.48333 12.9583 7.37667 13.3983C7.77667 13.5983 8.23 13.5983 8.62333 13.3983C9.51667 12.9517 10.6233 12.785 11.6633 12.785C12.33 12.785 13.0233 12.8583 13.6767 13.025C14.5167 13.245 15.33 12.605 15.33 11.7317V4.21167C15.33 3.67167 15.0033 3.19833 14.5167 2.97833C13.6633 2.59833 12.6367 2.45167 11.67 2.45167ZM14.0033 10.9383C14.0033 11.3583 13.6167 11.665 13.2033 11.5917C12.7033 11.4983 12.1833 11.4583 11.67 11.4583C10.5367 11.4583 8.90333 11.8917 8.00333 12.4583V4.785C8.90333 4.21833 10.5367 3.785 11.67 3.785C12.2833 3.785 12.89 3.845 13.47 3.97167C13.7767 4.03833 14.0033 4.31167 14.0033 4.625V10.9383Z" fill="var(--fill-0, #002B8F)"/>
<path d="M9.32333 6.79167C9.11 6.79167 8.91667 6.65833 8.85 6.445C8.76333 6.185 8.91 5.89833 9.17 5.81833C10.1967 5.485 11.5233 5.37833 12.7433 5.51833C13.0167 5.55167 13.2167 5.79833 13.1833 6.07167C13.15 6.345 12.9033 6.545 12.63 6.51167C11.55 6.385 10.37 6.485 9.47667 6.77167C9.42333 6.77833 9.37 6.79167 9.32333 6.79167Z" fill="var(--fill-0, #002B8F)"/>
<path d="M9.32333 8.565C9.11 8.565 8.91667 8.43167 8.85 8.21833C8.76333 7.95833 8.91 7.67167 9.17 7.59167C10.19 7.25833 11.5233 7.15167 12.7433 7.29167C13.0167 7.325 13.2167 7.57167 13.1833 7.845C13.15 8.11833 12.9033 8.31833 12.63 8.285C11.55 8.15833 10.37 8.25833 9.47667 8.545C9.42333 8.55833 9.37 8.565 9.32333 8.565Z" fill="var(--fill-0, #002B8F)"/>
<path d="M9.32333 10.3383C9.11 10.3383 8.91667 10.205 8.85 9.99167C8.76333 9.73167 8.91 9.445 9.17 9.365C10.19 9.03167 11.5233 8.925 12.7433 9.065C13.0167 9.09833 13.2167 9.345 13.1833 9.61833C13.15 9.89167 12.9033 10.085 12.63 10.0583C11.55 9.93167 10.37 10.0317 9.47667 10.3183C9.42333 10.3317 9.37 10.3383 9.32333 10.3383Z" fill="var(--fill-0, #002B8F)"/>
</g>
</g>
</svg>
