<svg preserveAspectRatio="none" width="100%" height="100%" overflow="visible" style="display: block;" viewBox="0 0 20 20" fill="none" xmlns="http://www.w3.org/2000/svg">
<g id="medication">
<g id="Vector">
<path d="M14.1667 2.5H5.83333C5.375 2.5 5 2.875 5 3.33333C5 3.79167 5.375 4.16667 5.83333 4.16667H14.1667C14.625 4.16667 15 3.79167 15 3.33333C15 2.875 14.625 2.5 14.1667 2.5Z" fill="var(--fill-0, #002B8F)"/>
<path d="M14.1667 5H5.83333C4.91667 5 4.16667 5.75 4.16667 6.66667V15.8333C4.16667 16.75 4.91667 17.5 5.83333 17.5H14.1667C15.0833 17.5 15.8333 16.75 15.8333 15.8333V6.66667C15.8333 5.75 15.0833 5 14.1667 5ZM12.0833 12.5H11.25V13.3333C11.25 14.025 10.6917 14.5833 10 14.5833C9.30833 14.5833 8.75 14.025 8.75 13.3333V12.5H7.91667C7.225 12.5 6.66667 11.9417 6.66667 11.25C6.66667 10.5583 7.225 10 7.91667 10H8.75V9.16667C8.75 8.475 9.30833 7.91667 10 7.91667C10.6917 7.91667 11.25 8.475 11.25 9.16667V10H12.0833C12.775 10 13.3333 10.5583 13.3333 11.25C13.3333 11.9417 12.775 12.5 12.0833 12.5Z" fill="var(--fill-0, #002B8F)"/>
</g>
</g>
</svg>
