<svg preserveAspectRatio="none" width="100%" height="100%" overflow="visible" style="display: block;" viewBox="0 0 20 20" fill="none" xmlns="http://www.w3.org/2000/svg">
<g id="event">
<path id="Vector" d="M13.3333 10.8333H10.8333C10.375 10.8333 10 11.2083 10 11.6667V14.1667C10 14.625 10.375 15 10.8333 15H13.3333C13.7917 15 14.1667 14.625 14.1667 14.1667V11.6667C14.1667 11.2083 13.7917 10.8333 13.3333 10.8333ZM13.3333 2.5V3.33333H6.66667V2.5C6.66667 2.04167 6.29167 1.66667 5.83333 1.66667C5.375 1.66667 5 2.04167 5 2.5V3.33333H4.16667C3.24167 3.33333 2.50833 4.08333 2.50833 5L2.5 16.6667C2.5 17.5833 3.24167 18.3333 4.16667 18.3333H15.8333C16.75 18.3333 17.5 17.5833 17.5 16.6667V5C17.5 4.08333 16.75 3.33333 15.8333 3.33333H15V2.5C15 2.04167 14.625 1.66667 14.1667 1.66667C13.7083 1.66667 13.3333 2.04167 13.3333 2.5ZM15 16.6667H5C4.54167 16.6667 4.16667 16.2917 4.16667 15.8333V7.5H15.8333V15.8333C15.8333 16.2917 15.4583 16.6667 15 16.6667Z" fill="var(--fill-0, #002B8F)"/>
</g>
</svg>
