<svg preserveAspectRatio="none" width="100%" height="100%" overflow="visible" style="display: block;" viewBox="0 0 22 22" fill="none" xmlns="http://www.w3.org/2000/svg">
<g id="link">
<path id="Vector" d="M15.5833 6.41667H12.8333C12.3292 6.41667 11.9167 6.82917 11.9167 7.33333C11.9167 7.8375 12.3292 8.25 12.8333 8.25H15.5833C17.0958 8.25 18.3333 9.4875 18.3333 11C18.3333 12.5125 17.0958 13.75 15.5833 13.75H12.8333C12.3292 13.75 11.9167 14.1625 11.9167 14.6667C11.9167 15.1708 12.3292 15.5833 12.8333 15.5833H15.5833C18.1133 15.5833 20.1667 13.53 20.1667 11C20.1667 8.47 18.1133 6.41667 15.5833 6.41667ZM7.33333 11C7.33333 11.5042 7.74583 11.9167 8.25 11.9167H13.75C14.2542 11.9167 14.6667 11.5042 14.6667 11C14.6667 10.4958 14.2542 10.0833 13.75 10.0833H8.25C7.74583 10.0833 7.33333 10.4958 7.33333 11ZM9.16667 13.75H6.41667C4.90417 13.75 3.66667 12.5125 3.66667 11C3.66667 9.4875 4.90417 8.25 6.41667 8.25H9.16667C9.67083 8.25 10.0833 7.8375 10.0833 7.33333C10.0833 6.82917 9.67083 6.41667 9.16667 6.41667H6.41667C3.88667 6.41667 1.83333 8.47 1.83333 11C1.83333 13.53 3.88667 15.5833 6.41667 15.5833H9.16667C9.67083 15.5833 10.0833 15.1708 10.0833 14.6667C10.0833 14.1625 9.67083 13.75 9.16667 13.75Z" fill="var(--fill-0, #002B8F)"/>
</g>
</svg>
