<svg preserveAspectRatio="none" width="100%" height="100%" overflow="visible" style="display: block;" viewBox="0 0 24 24" fill="none" xmlns="http://www.w3.org/2000/svg">
<g id="local_pharmacy">
<path id="Vector" d="M18.9 5.82353H18.37L19.08 3.85353C19.32 3.20353 18.98 2.48353 18.33 2.25353C17.68 2.01353 16.96 2.35353 16.72 3.00353L15.7 5.82353H5.10998C3.73998 5.82353 2.77998 7.16353 3.20998 8.45353L5.00998 13.8235L3.21998 19.1935C2.77998 20.4835 3.74998 21.8235 5.10998 21.8235H18.89C20.25 21.8235 21.22 20.4835 20.79 19.1935L19.01 13.8235L20.79 8.45353C21.22 7.16353 20.26 5.82353 18.9 5.82353ZM15.01 14.8235H13.01V16.8235C13.01 17.3735 12.56 17.8235 12.01 17.8235C11.46 17.8235 11.01 17.3735 11.01 16.8235V14.8235H9.00998C8.45998 14.8235 8.00998 14.3735 8.00998 13.8235C8.00998 13.2735 8.45998 12.8235 9.00998 12.8235H11.01V10.8235C11.01 10.2735 11.46 9.82353 12.01 9.82353C12.56 9.82353 13.01 10.2735 13.01 10.8235V12.8235H15.01C15.56 12.8235 16.01 13.2735 16.01 13.8235C16.01 14.3735 15.56 14.8235 15.01 14.8235Z" fill="var(--fill-0, #002B8F)"/>
</g>
</svg>
