<svg preserveAspectRatio="none" width="100%" height="100%" overflow="visible" style="display: block;" viewBox="0 0 18 18" fill="none" xmlns="http://www.w3.org/2000/svg">
<g id="local_fire_department">
<g id="Vector">
<path d="M9.00329 10.1389L7.48079 11.6389C7.13579 11.9839 6.86579 12.4114 6.78329 12.8914C6.55829 14.2714 7.63829 15.4639 9.00329 15.4639C10.3683 15.4639 11.4483 14.2714 11.2233 12.8989C11.1408 12.4189 10.8783 11.9839 10.5258 11.6464L9.00329 10.1389Z" fill="var(--fill-0, #002B8F)"/>
<path d="M11.6733 5.37644C10.7883 6.47894 9.00329 5.85644 9.00329 4.43894V3.29144C9.00329 2.69144 8.33579 2.33144 7.84079 2.66144C6.09329 3.83144 3.00329 6.44144 3.00329 10.2139C3.00329 12.4039 4.17329 14.3164 5.92079 15.3589C5.38829 14.5939 5.12579 13.6264 5.31329 12.5989C5.45579 11.8189 5.87579 11.1139 6.44579 10.5589L8.47829 8.55644C8.77079 8.27144 9.23579 8.27144 9.52829 8.55644L11.5758 10.5739C12.1308 11.1214 12.5508 11.8114 12.6858 12.5839C12.8733 13.6039 12.6333 14.5639 12.1083 15.3289C13.5258 14.4664 14.5758 13.0339 14.8908 11.3539C15.3483 8.90144 14.2833 6.57644 12.4758 5.27894C12.2283 5.09144 11.8758 5.12894 11.6733 5.37644Z" fill="var(--fill-0, #002B8F)"/>
</g>
</g>
</svg>
