<svg preserveAspectRatio="none" width="100%" height="100%" overflow="visible" style="display: block;" viewBox="0 0 14 14" fill="none" xmlns="http://www.w3.org/2000/svg">
<g id="lock">
<path id="Vector" d="M10.5 4.95833H9.91667V3.79167C9.91667 2.18167 8.61 0.875 7 0.875C5.39 0.875 4.08333 2.18167 4.08333 3.79167V4.95833H3.5C2.85833 4.95833 2.33333 5.48333 2.33333 6.125V11.9583C2.33333 12.6 2.85833 13.125 3.5 13.125H10.5C11.1417 13.125 11.6667 12.6 11.6667 11.9583V6.125C11.6667 5.48333 11.1417 4.95833 10.5 4.95833ZM7 10.2083C6.35833 10.2083 5.83333 9.68333 5.83333 9.04167C5.83333 8.4 6.35833 7.875 7 7.875C7.64167 7.875 8.16667 8.4 8.16667 9.04167C8.16667 9.68333 7.64167 10.2083 7 10.2083ZM5.25 4.95833V3.79167C5.25 2.82333 6.03167 2.04167 7 2.04167C7.96833 2.04167 8.75 2.82333 8.75 3.79167V4.95833H5.25Z" fill="var(--fill-0, #B8C7EB)"/>
</g>
</svg>
