<svg preserveAspectRatio="none" width="100%" height="100%" overflow="visible" style="display: block;" viewBox="0 0 12 12" fill="none" xmlns="http://www.w3.org/2000/svg">
<g id="lock">
<path id="Vector" d="M9 4.25H8.5V3.25C8.5 1.87 7.38 0.75 6 0.75C4.62 0.75 3.5 1.87 3.5 3.25V4.25H3C2.45 4.25 2 4.7 2 5.25V10.25C2 10.8 2.45 11.25 3 11.25H9C9.55 11.25 10 10.8 10 10.25V5.25C10 4.7 9.55 4.25 9 4.25ZM6 8.75C5.45 8.75 5 8.3 5 7.75C5 7.2 5.45 6.75 6 6.75C6.55 6.75 7 7.2 7 7.75C7 8.3 6.55 8.75 6 8.75ZM4.5 4.25V3.25C4.5 2.42 5.17 1.75 6 1.75C6.83 1.75 7.5 2.42 7.5 3.25V4.25H4.5Z" fill="var(--fill-0, #737373)"/>
</g>
</svg>
