<svg preserveAspectRatio="none" width="100%" height="100%" overflow="visible" style="display: block;" viewBox="0 0 22 22" fill="none" xmlns="http://www.w3.org/2000/svg">
<g id="medical_information">
<path id="Vector" d="M18.3333 6.41667H13.75V3.66667C13.75 2.65833 12.925 1.83333 11.9167 1.83333H10.0833C9.075 1.83333 8.25 2.65833 8.25 3.66667V6.41667H3.66667C2.65833 6.41667 1.83333 7.24167 1.83333 8.25V18.3333C1.83333 19.3417 2.65833 20.1667 3.66667 20.1667H18.3333C19.3417 20.1667 20.1667 19.3417 20.1667 18.3333V8.25C20.1667 7.24167 19.3417 6.41667 18.3333 6.41667ZM10.0833 3.66667H11.9167V8.25H10.0833V3.66667ZM6.41667 14.6667H5.5C4.99583 14.6667 4.58333 14.2542 4.58333 13.75C4.58333 13.2458 4.99583 12.8333 5.5 12.8333H6.41667V11.9167C6.41667 11.4125 6.82917 11 7.33333 11C7.8375 11 8.25 11.4125 8.25 11.9167V12.8333H9.16667C9.67083 12.8333 10.0833 13.2458 10.0833 13.75C10.0833 14.2542 9.67083 14.6667 9.16667 14.6667H8.25V15.5833C8.25 16.0875 7.8375 16.5 7.33333 16.5C6.82917 16.5 6.41667 16.0875 6.41667 15.5833V14.6667ZM12.6042 13.2917C12.2283 13.2917 11.9167 12.98 11.9167 12.6042C11.9167 12.2283 12.2283 11.9167 12.6042 11.9167H16.7292C17.105 11.9167 17.4167 12.2283 17.4167 12.6042C17.4167 12.98 17.105 13.2917 16.7292 13.2917H12.6042ZM12.6042 16.0417C12.2283 16.0417 11.9167 15.73 11.9167 15.3542C11.9167 14.9783 12.2283 14.6667 12.6042 14.6667H14.8958C15.2717 14.6667 15.5833 14.9783 15.5833 15.3542C15.5833 15.73 15.2717 16.0417 14.8958 16.0417H12.6042Z" fill="var(--fill-0, #002B8F)"/>
</g>
</svg>
