<svg preserveAspectRatio="none" width="100%" height="100%" overflow="visible" style="display: block;" viewBox="0 0 32 32" fill="none" xmlns="http://www.w3.org/2000/svg">
<g id="medical_services">
<path id="Vector" d="M26.6667 8H21.3333V5.33333C21.3333 3.86667 20.1333 2.66667 18.6667 2.66667H13.3333C11.8667 2.66667 10.6667 3.86667 10.6667 5.33333V8H5.33333C3.86667 8 2.66667 9.2 2.66667 10.6667V26.6667C2.66667 28.1333 3.86667 29.3333 5.33333 29.3333H26.6667C28.1333 29.3333 29.3333 28.1333 29.3333 26.6667V10.6667C29.3333 9.2 28.1333 8 26.6667 8ZM13.3333 5.33333H18.6667V8H13.3333V5.33333ZM20 20H17.3333V22.6667C17.3333 23.4 16.7333 24 16 24C15.2667 24 14.6667 23.4 14.6667 22.6667V20H12C11.2667 20 10.6667 19.4 10.6667 18.6667C10.6667 17.9333 11.2667 17.3333 12 17.3333H14.6667V14.6667C14.6667 13.9333 15.2667 13.3333 16 13.3333C16.7333 13.3333 17.3333 13.9333 17.3333 14.6667V17.3333H20C20.7333 17.3333 21.3333 17.9333 21.3333 18.6667C21.3333 19.4 20.7333 20 20 20Z" fill="var(--fill-0, white)"/>
</g>
</svg>
