<svg preserveAspectRatio="none" width="100%" height="100%" overflow="visible" style="display: block;" viewBox="0 0 20 20" fill="none" xmlns="http://www.w3.org/2000/svg">
<g id="medical_services">
<path id="Vector" d="M16.6667 5H13.3333V3.33333C13.3333 2.41667 12.5833 1.66667 11.6667 1.66667H8.33333C7.41667 1.66667 6.66667 2.41667 6.66667 3.33333V5H3.33333C2.41667 5 1.66667 5.75 1.66667 6.66667V16.6667C1.66667 17.5833 2.41667 18.3333 3.33333 18.3333H16.6667C17.5833 18.3333 18.3333 17.5833 18.3333 16.6667V6.66667C18.3333 5.75 17.5833 5 16.6667 5ZM8.33333 3.33333H11.6667V5H8.33333V3.33333ZM12.5 12.5H10.8333V14.1667C10.8333 14.625 10.4583 15 10 15C9.54167 15 9.16667 14.625 9.16667 14.1667V12.5H7.5C7.04167 12.5 6.66667 12.125 6.66667 11.6667C6.66667 11.2083 7.04167 10.8333 7.5 10.8333H9.16667V9.16667C9.16667 8.70833 9.54167 8.33333 10 8.33333C10.4583 8.33333 10.8333 8.70833 10.8333 9.16667V10.8333H12.5C12.9583 10.8333 13.3333 11.2083 13.3333 11.6667C13.3333 12.125 12.9583 12.5 12.5 12.5Z" fill="var(--fill-0, white)"/>
</g>
</svg>
