<svg preserveAspectRatio="none" width="100%" height="100%" overflow="visible" style="display: block;" viewBox="0 0 18 18" fill="none" xmlns="http://www.w3.org/2000/svg">
<g id="medication">
<g id="Vector">
<path d="M12.75 2.25H5.25C4.8375 2.25 4.5 2.5875 4.5 3C4.5 3.4125 4.8375 3.75 5.25 3.75H12.75C13.1625 3.75 13.5 3.4125 13.5 3C13.5 2.5875 13.1625 2.25 12.75 2.25Z" fill="var(--fill-0, white)"/>
<path d="M12.75 4.5H5.25C4.425 4.5 3.75 5.175 3.75 6V14.25C3.75 15.075 4.425 15.75 5.25 15.75H12.75C13.575 15.75 14.25 15.075 14.25 14.25V6C14.25 5.175 13.575 4.5 12.75 4.5ZM10.875 11.25H10.125V12C10.125 12.6225 9.6225 13.125 9 13.125C8.3775 13.125 7.875 12.6225 7.875 12V11.25H7.125C6.5025 11.25 6 10.7475 6 10.125C6 9.5025 6.5025 9 7.125 9H7.875V8.25C7.875 7.6275 8.3775 7.125 9 7.125C9.6225 7.125 10.125 7.6275 10.125 8.25V9H10.875C11.4975 9 12 9.5025 12 10.125C12 10.7475 11.4975 11.25 10.875 11.25Z" fill="var(--fill-0, white)"/>
</g>
</g>
</svg>
