<svg preserveAspectRatio="none" width="100%" height="100%" overflow="visible" style="display: block;" viewBox="0 0 16 16" fill="none" xmlns="http://www.w3.org/2000/svg">
<g id="medication">
<g id="Vector">
<path d="M11.3333 2H4.66667C4.3 2 4 2.3 4 2.66667C4 3.03333 4.3 3.33333 4.66667 3.33333H11.3333C11.7 3.33333 12 3.03333 12 2.66667C12 2.3 11.7 2 11.3333 2Z" fill="var(--fill-0, #002B8F)"/>
<path d="M11.3333 4H4.66667C3.93333 4 3.33333 4.6 3.33333 5.33333V12.6667C3.33333 13.4 3.93333 14 4.66667 14H11.3333C12.0667 14 12.6667 13.4 12.6667 12.6667V5.33333C12.6667 4.6 12.0667 4 11.3333 4ZM9.66667 10H9V10.6667C9 11.22 8.55333 11.6667 8 11.6667C7.44667 11.6667 7 11.22 7 10.6667V10H6.33333C5.78 10 5.33333 9.55333 5.33333 9C5.33333 8.44667 5.78 8 6.33333 8H7V7.33333C7 6.78 7.44667 6.33333 8 6.33333C8.55333 6.33333 9 6.78 9 7.33333V8H9.66667C10.22 8 10.6667 8.44667 10.6667 9C10.6667 9.55333 10.22 10 9.66667 10Z" fill="var(--fill-0, #002B8F)"/>
</g>
</g>
</svg>
