<svg preserveAspectRatio="none" width="100%" height="100%" overflow="visible" style="display: block;" viewBox="0 0 22 22" fill="none" xmlns="http://www.w3.org/2000/svg">
<g id="lock">
<path id="Vector" d="M16.5 7.79167H15.5833V5.95833C15.5833 3.42833 13.53 1.375 11 1.375C8.47 1.375 6.41667 3.42833 6.41667 5.95833V7.79167H5.5C4.49167 7.79167 3.66667 8.61667 3.66667 9.625V18.7917C3.66667 19.8 4.49167 20.625 5.5 20.625H16.5C17.5083 20.625 18.3333 19.8 18.3333 18.7917V9.625C18.3333 8.61667 17.5083 7.79167 16.5 7.79167ZM11 16.0417C9.99167 16.0417 9.16667 15.2167 9.16667 14.2083C9.16667 13.2 9.99167 12.375 11 12.375C12.0083 12.375 12.8333 13.2 12.8333 14.2083C12.8333 15.2167 12.0083 16.0417 11 16.0417ZM8.25 7.79167V5.95833C8.25 4.43667 9.47833 3.20833 11 3.20833C12.5217 3.20833 13.75 4.43667 13.75 5.95833V7.79167H8.25Z" fill="var(--fill-0, #141419)"/>
</g>
</svg>
