<svg preserveAspectRatio="none" width="100%" height="100%" overflow="visible" style="display: block;" viewBox="0 0 22 22" fill="none" xmlns="http://www.w3.org/2000/svg">
<g id="date_range">
<path id="Vector" d="M17.4167 3.66667H16.5V2.75C16.5 2.24583 16.0875 1.83333 15.5833 1.83333C15.0792 1.83333 14.6667 2.24583 14.6667 2.75V3.66667H7.33333V2.75C7.33333 2.24583 6.92083 1.83333 6.41667 1.83333C5.9125 1.83333 5.5 2.24583 5.5 2.75V3.66667H4.58333C3.56583 3.66667 2.75917 4.49167 2.75917 5.5L2.75 18.3333C2.75 19.3417 3.56583 20.1667 4.58333 20.1667H17.4167C18.425 20.1667 19.25 19.3417 19.25 18.3333V5.5C19.25 4.49167 18.425 3.66667 17.4167 3.66667ZM17.4167 17.4167C17.4167 17.9208 17.0042 18.3333 16.5 18.3333H5.5C4.99583 18.3333 4.58333 17.9208 4.58333 17.4167V8.25H17.4167V17.4167ZM6.41667 10.0833H8.25V11.9167H6.41667V10.0833ZM10.0833 10.0833H11.9167V11.9167H10.0833V10.0833ZM13.75 10.0833H15.5833V11.9167H13.75V10.0833Z" fill="var(--fill-0, #141419)"/>
</g>
</svg>
