<svg preserveAspectRatio="none" width="100%" height="100%" overflow="visible" style="display: block;" viewBox="0 0 18 18" fill="none" xmlns="http://www.w3.org/2000/svg">
<g id="menu_book">
<g id="Vector">
<path d="M13.1288 2.75812C11.6663 2.75812 10.0913 3.05812 9.00375 3.88312C7.91625 3.05812 6.34125 2.75812 4.87875 2.75812C3.79125 2.75812 2.63625 2.92312 1.66875 3.35062C1.12125 3.59812 0.75375 4.13062 0.75375 4.73812V13.1981C0.75375 14.1731 1.66875 14.8931 2.61375 14.6531C3.34875 14.4656 4.12875 14.3831 4.87875 14.3831C6.04875 14.3831 7.29375 14.5781 8.29875 15.0731C8.74875 15.2981 9.25875 15.2981 9.70125 15.0731C10.7063 14.5706 11.9512 14.3831 13.1212 14.3831C13.8712 14.3831 14.6513 14.4656 15.3863 14.6531C16.3313 14.9006 17.2462 14.1806 17.2462 13.1981V4.73812C17.2462 4.13062 16.8788 3.59812 16.3313 3.35062C15.3713 2.92312 14.2163 2.75812 13.1288 2.75812ZM15.7538 12.3056C15.7538 12.7781 15.3187 13.1231 14.8537 13.0406C14.2912 12.9356 13.7063 12.8906 13.1288 12.8906C11.8538 12.8906 10.0163 13.3781 9.00375 14.0156V5.38312C10.0163 4.74562 11.8538 4.25812 13.1288 4.25812C13.8188 4.25812 14.5013 4.32562 15.1538 4.46812C15.4988 4.54312 15.7538 4.85063 15.7538 5.20312V12.3056Z" fill="var(--fill-0, #002B8F)"/>
<path d="M10.4887 7.64062C10.2487 7.64062 10.0313 7.49062 9.95625 7.25062C9.85875 6.95812 10.0238 6.63562 10.3163 6.54562C11.4713 6.17062 12.9638 6.05063 14.3363 6.20813C14.6438 6.24563 14.8688 6.52313 14.8313 6.83063C14.7938 7.13813 14.5163 7.36312 14.2088 7.32562C12.9938 7.18312 11.6663 7.29562 10.6613 7.61812C10.6013 7.62562 10.5412 7.64062 10.4887 7.64062Z" fill="var(--fill-0, #002B8F)"/>
<path d="M10.4887 9.63562C10.2487 9.63562 10.0313 9.48562 9.95625 9.24562C9.85875 8.95312 10.0238 8.63062 10.3163 8.54062C11.4638 8.16562 12.9638 8.04563 14.3363 8.20312C14.6438 8.24063 14.8688 8.51812 14.8313 8.82562C14.7938 9.13312 14.5163 9.35812 14.2088 9.32062C12.9938 9.17812 11.6663 9.29063 10.6613 9.61313C10.6013 9.62813 10.5412 9.63562 10.4887 9.63562Z" fill="var(--fill-0, #002B8F)"/>
<path d="M10.4887 11.6306C10.2487 11.6306 10.0313 11.4806 9.95625 11.2406C9.85875 10.9481 10.0238 10.6256 10.3163 10.5356C11.4638 10.1606 12.9638 10.0406 14.3363 10.1981C14.6438 10.2356 14.8688 10.5131 14.8313 10.8206C14.7938 11.1281 14.5163 11.3456 14.2088 11.3156C12.9938 11.1731 11.6663 11.2856 10.6613 11.6081C10.6013 11.6231 10.5412 11.6306 10.4887 11.6306Z" fill="var(--fill-0, #002B8F)"/>
</g>
</g>
</svg>
