<svg preserveAspectRatio="none" width="100%" height="100%" overflow="visible" style="display: block;" viewBox="0 0 22 22" fill="none" xmlns="http://www.w3.org/2000/svg">
<g id="logout">
<g id="Vector">
<path d="M4.679 4.58333H10.179C10.6832 4.58333 11.0957 4.17083 11.0957 3.66667C11.0957 3.1625 10.6832 2.75 10.179 2.75H4.679C3.67067 2.75 2.84567 3.575 2.84567 4.58333V17.4167C2.84567 18.425 3.67067 19.25 4.679 19.25H10.179C10.6832 19.25 11.0957 18.8375 11.0957 18.3333C11.0957 17.8292 10.6832 17.4167 10.179 17.4167H4.679V4.58333Z" fill="var(--fill-0, #737373)"/>
<path d="M19.0248 10.6792L16.4673 8.12167C16.174 7.82833 15.679 8.03 15.679 8.4425V10.0833H9.26233C8.75817 10.0833 8.34567 10.4958 8.34567 11C8.34567 11.5042 8.75817 11.9167 9.26233 11.9167H15.679V13.5575C15.679 13.97 16.174 14.1717 16.4582 13.8783L19.0157 11.3208C19.199 11.1467 19.199 10.8533 19.0248 10.6792Z" fill="var(--fill-0, #737373)"/>
</g>
</g>
</svg>
