<svg preserveAspectRatio="none" width="100%" height="100%" overflow="visible" style="display: block;" viewBox="0 0 19 19" fill="none" xmlns="http://www.w3.org/2000/svg">
<g id="mic_none">
<path id="Vector" d="M9.5 11.0833C10.8142 11.0833 11.875 10.0225 11.875 8.70833V3.95833C11.875 2.64417 10.8142 1.58333 9.5 1.58333C8.18583 1.58333 7.125 2.64417 7.125 3.95833V8.70833C7.125 10.0225 8.18583 11.0833 9.5 11.0833ZM8.70833 3.95833C8.70833 3.52292 9.06458 3.16667 9.5 3.16667C9.93542 3.16667 10.2917 3.52292 10.2917 3.95833V8.70833C10.2917 9.14375 9.93542 9.5 9.5 9.5C9.06458 9.5 8.70833 9.14375 8.70833 8.70833V3.95833ZM14.1787 8.70833C13.7908 8.70833 13.4663 8.99333 13.4029 9.38125C13.0783 11.2417 11.4554 12.6667 9.5 12.6667C7.54458 12.6667 5.92167 11.2417 5.59708 9.38125C5.53375 8.99333 5.20917 8.70833 4.82125 8.70833C4.33833 8.70833 3.95833 9.13583 4.02958 9.61083C4.4175 11.9858 6.3175 13.8463 8.70833 14.1867V15.8333C8.70833 16.2688 9.06458 16.625 9.5 16.625C9.93542 16.625 10.2917 16.2688 10.2917 15.8333V14.1867C12.6825 13.8463 14.5825 11.9858 14.9704 9.61083C15.0496 9.13583 14.6617 8.70833 14.1787 8.70833Z" fill="var(--fill-0, #002B8F)"/>
</g>
</svg>
