<svg preserveAspectRatio="none" width="100%" height="100%" overflow="visible" style="display: block;" viewBox="0 0 32 32" fill="none" xmlns="http://www.w3.org/2000/svg">
<g id="mic">
<path id="Vector" d="M15.9986 19.3333C18.2119 19.3333 19.9986 17.5467 19.9986 15.3333V7.33333C19.9986 5.12 18.2119 3.33333 15.9986 3.33333C13.7852 3.33333 11.9986 5.12 11.9986 7.33333V15.3333C11.9986 17.5467 13.7852 19.3333 15.9986 19.3333ZM23.8786 15.3333C23.2252 15.3333 22.6786 15.8133 22.5719 16.4667C22.0252 19.6 19.2919 22 15.9986 22C12.7052 22 9.97191 19.6 9.42525 16.4667C9.31858 15.8133 8.77191 15.3333 8.11858 15.3333C7.30525 15.3333 6.66525 16.0533 6.78525 16.8533C7.43858 20.8533 10.6386 23.9867 14.6652 24.56V27.3333C14.6652 28.0667 15.2652 28.6667 15.9986 28.6667C16.7319 28.6667 17.3319 28.0667 17.3319 27.3333V24.56C21.3586 23.9867 24.5586 20.8533 25.2119 16.8533C25.3452 16.0533 24.6919 15.3333 23.8786 15.3333Z" fill="var(--fill-0, white)"/>
</g>
</svg>
