<svg preserveAspectRatio="none" width="100%" height="100%" overflow="visible" style="display: block;" viewBox="0 0 16 16" fill="none" xmlns="http://www.w3.org/2000/svg">
<g id="monitor_heart">
<g id="Vector">
<path d="M10.0733 8.3L9.33333 6.82667L7.26 10.9667C7.15333 11.1933 6.92 11.3333 6.66667 11.3333C6.41333 11.3333 6.18 11.1933 6.07333 10.9667L4.92 8.66667H1.33333V12C1.33333 12.7333 1.93333 13.3333 2.66667 13.3333H13.3333C14.0667 13.3333 14.6667 12.7333 14.6667 12V8.66667H10.6667C10.4133 8.66667 10.18 8.52667 10.0733 8.3Z" fill="var(--fill-0, #002B8F)"/>
<path d="M13.3333 2.66667H2.66667C1.93333 2.66667 1.33333 3.26667 1.33333 4V7.33333H5.33333C5.58667 7.33333 5.82 7.47333 5.92667 7.7L6.66667 9.17333L8.74 5.03333C8.96667 4.58 9.70667 4.58 9.93333 5.03333L11.08 7.33333H14.6667V4C14.6667 3.26667 14.0667 2.66667 13.3333 2.66667Z" fill="var(--fill-0, #002B8F)"/>
</g>
</g>
</svg>
