<svg preserveAspectRatio="none" width="100%" height="100%" overflow="visible" style="display: block;" viewBox="0 0 20 20" fill="none" xmlns="http://www.w3.org/2000/svg">
<g id="monitor_heart">
<g id="Vector">
<path d="M12.5917 10.375L11.6667 8.53333L9.075 13.7083C8.94167 13.9917 8.65 14.1667 8.33333 14.1667C8.01667 14.1667 7.725 13.9917 7.59167 13.7083L6.15 10.8333H1.66667V15C1.66667 15.9167 2.41667 16.6667 3.33333 16.6667H16.6667C17.5833 16.6667 18.3333 15.9167 18.3333 15V10.8333H13.3333C13.0167 10.8333 12.725 10.6583 12.5917 10.375Z" fill="var(--fill-0, #002B8F)"/>
<path d="M16.6667 3.33333H3.33333C2.41667 3.33333 1.66667 4.08333 1.66667 5V9.16667H6.66667C6.98333 9.16667 7.275 9.34167 7.40833 9.625L8.33333 11.4667L10.925 6.29167C11.2083 5.725 12.1333 5.725 12.4167 6.29167L13.85 9.16667H18.3333V5C18.3333 4.08333 17.5833 3.33333 16.6667 3.33333Z" fill="var(--fill-0, #002B8F)"/>
</g>
</g>
</svg>
