<svg preserveAspectRatio="none" width="100%" height="100%" overflow="visible" style="display: block;" viewBox="0 0 21.99 16.645" fill="none" xmlns="http://www.w3.org/2000/svg">
<g id="Group">
<path id="Vector" d="M16.5 0C14.55 0 12.45 0.4 11 1.5C9.55 0.4 7.45 0 5.5 0C4.05 0 2.51 0.22 1.22 0.79C0.49 1.12 0 1.83 0 2.64V13.92C0 15.22 1.22 16.18 2.48 15.86C3.46 15.61 4.5 15.5 5.5 15.5C7.06 15.5 8.72 15.76 10.06 16.42C10.66 16.72 11.34 16.72 11.93 16.42C13.27 15.75 14.93 15.5 16.49 15.5C17.49 15.5 18.53 15.61 19.51 15.86C20.77 16.19 21.99 15.23 21.99 13.92V2.64C21.99 1.83 21.5 1.12 20.77 0.79C19.49 0.22 17.95 0 16.5 0ZM20 12.73C20 13.36 19.42 13.82 18.8 13.71C18.05 13.57 17.27 13.51 16.5 13.51C14.8 13.51 12.35 14.16 11 15.01V3.5C12.35 2.65 14.8 2 16.5 2C17.42 2 18.33 2.09 19.2 2.28C19.66 2.38 20 2.79 20 3.26V12.73Z" fill="var(--fill-0, #817E77)"/>
<path id="Vector_2" d="M12.98 6.51C12.66 6.51 12.37 6.31 12.27 5.99C12.14 5.6 12.36 5.17 12.75 5.05C14.29 4.55 16.28 4.39 18.11 4.6C18.52 4.65 18.82 5.02 18.77 5.43C18.72 5.84 18.35 6.14 17.94 6.09C16.32 5.9 14.55 6.05 13.21 6.48C13.13 6.49 13.05 6.51 12.98 6.51Z" fill="var(--fill-0, #817E77)"/>
<path id="Vector_3" d="M12.98 9.17C12.66 9.17 12.37 8.97 12.27 8.65C12.14 8.26 12.36 7.83 12.75 7.71C14.28 7.21 16.28 7.05 18.11 7.26C18.52 7.31 18.82 7.68 18.77 8.09C18.72 8.5 18.35 8.8 17.94 8.75C16.32 8.56 14.55 8.71 13.21 9.14C13.13 9.16 13.05 9.17 12.98 9.17Z" fill="var(--fill-0, #817E77)"/>
<path id="Vector_4" d="M12.98 11.83C12.66 11.83 12.37 11.63 12.27 11.31C12.14 10.92 12.36 10.49 12.75 10.37C14.28 9.87 16.28 9.71 18.11 9.92C18.52 9.97 18.82 10.34 18.77 10.75C18.72 11.16 18.35 11.45 17.94 11.41C16.32 11.22 14.55 11.37 13.21 11.8C13.13 11.82 13.05 11.83 12.98 11.83Z" fill="var(--fill-0, #817E77)"/>
</g>
</svg>
