<svg preserveAspectRatio="none" width="100%" height="100%" overflow="visible" style="display: block;" viewBox="0 0 78.127 118.117" fill="none" xmlns="http://www.w3.org/2000/svg">
<g id="Group 28">
<path id="Vector" d="M16.8683 59.0153C19.1092 58.7973 21.3711 59.0016 23.537 59.616C29.6485 61.3428 33.0677 65.7117 37.3851 70.031L49.5726 82.2223L68.8442 101.485C70.3555 102.995 77.3553 109.77 78.127 111.154C77.9301 112.652 74.1545 115.518 73.1277 116.818C72.7164 117.339 71.8815 118.058 71.1854 118.117C70.073 117.666 55.6211 102.88 53.9105 101.168L32.94 80.2019L27.2471 74.4977C24.7231 71.9683 22.6688 69.3472 18.8107 69.2481C16.5684 69.185 14.3972 70.0372 12.7982 71.6103C11.7622 72.6038 11.0157 73.8586 10.6381 75.2422C10.0869 77.2873 10.2569 81.0232 10.2596 83.2454C10.2775 86.8822 10.2767 90.5178 10.257 94.1546C9.2472 93.5923 8.38407 93.0807 7.45728 92.3808C3.4491 89.3906 0.817371 84.909 0.158508 79.9517C-0.492427 75.0068 0.878313 70.0075 3.96081 66.0857C7.23258 61.9051 11.6576 59.6544 16.8683 59.0153Z" fill="var(--fill-0, #F9F2E4)"/>
<path id="Vector_2" d="M15.7991 0.067898C17.4225 0.0571213 22.8086 -0.253665 23.8714 0.550993C24.2537 1.76256 24.1031 14.8034 24.1031 16.8984L24.0686 56.5572C23.3308 56.39 22.5626 56.2743 21.8147 56.1488C18.8604 55.6369 16.2929 55.8955 13.3976 56.5064L13.3839 21.3259L13.3832 8.40916C13.383 6.12029 13.3612 3.83279 13.4176 1.54479C13.4587 -0.120883 14.5302 0.0750824 15.7991 0.067898Z" fill="var(--fill-0, #F9F2E4)"/>
<path id="Vector_3" d="M17.6783 72.3655C20.8519 72.0868 22.0542 73.5274 24.0385 75.6344L24.0499 100.241C24.0504 101.875 24.2904 113.778 23.6633 114.471C22.6934 114.902 20.8021 114.777 19.6742 114.772C18.7504 114.78 13.7241 115.13 13.5825 114.032C13.2668 111.583 13.3965 108.725 13.3994 106.233L13.404 91.5616L13.3999 82.2627C13.3979 78.0759 12.4782 73.707 17.6783 72.3655Z" fill="var(--fill-0, #F9F2E4)"/>
<path id="Vector_4" d="M63.8685 44.4453C64.6191 44.6009 66.134 46.1595 66.6989 46.7817C67.722 47.9112 70.4459 50.1188 70.7953 51.4954C70.5512 51.9519 69.9009 52.6892 69.533 53.0602C64.1199 58.5154 58.661 63.9409 53.2231 69.3676C51.8853 70.7005 50.5562 72.0395 49.2333 73.3847C48.801 73.8232 47.509 75.1932 47.0755 75.4819C44.6278 73.0714 42.2012 70.6373 39.7969 68.1835C45.4292 62.8224 50.8968 57.0079 56.4673 51.5696C58.0528 50.0206 62.3796 45.3803 63.8685 44.4453Z" fill="var(--fill-0, #F9F2E4)"/>
<path id="Vector_5" d="M27.9622 79.7197C28.5839 79.9055 34.4252 85.9491 35.3287 86.8534L31.5741 90.7726C30.2089 92.0695 28.9213 93.0803 27.2493 93.9462C27.234 90.2474 27.1295 84.4032 27.3203 80.5509C27.3267 80.4183 27.8287 79.8671 27.9622 79.7197Z" fill="var(--fill-0, #F9F2E4)"/>
</g>
</svg>
