<svg preserveAspectRatio="none" width="100%" height="100%" overflow="visible" style="display: block;" viewBox="0 0 33.4555 53.0204" fill="none" xmlns="http://www.w3.org/2000/svg">
<g id="Group 26">
<path id="Vector" d="M3.14587 0C4.22487 0.0375837 5.51348 0.00814932 6.61098 0.00884415L13.1997 0.0111188C12.8506 0.813262 12.1698 1.9138 11.7479 2.76483C8.59809 9.11875 9.02483 14.3586 11.1996 20.8236C11.5556 20.564 11.9674 20.197 12.3072 19.9027C16.6045 16.1807 23.4759 13.5364 28.9014 16.7739C31.0306 18.0218 32.5614 20.0818 33.1418 22.4807C33.8074 25.1081 33.4045 27.8922 32.0214 30.223C30.6849 32.4496 28.8134 33.7414 26.3337 34.3604C31.3065 39.6486 31.8945 46.0954 32.0132 52.9956C28.9866 52.9476 25.8447 52.9912 22.8088 52.988C22.8828 51.7664 22.9167 50.5429 22.9104 49.3193C22.8422 43.0924 19.8546 39.7295 14.8869 36.3223C13.3005 35.234 12.3449 34.5783 10.5561 33.7812C10.5212 33.869 10.4888 33.9574 10.4592 34.0471C10.0382 35.2883 9.84792 36.4234 9.63465 37.6968C9.03177 41.2947 9.3358 44.4493 10.5831 47.871C11.3366 49.9384 12.1585 51.1316 13.071 52.9842C9.82974 53.0512 6.24797 53.0095 2.99246 52.9836C2.10495 51.172 1.38284 48.7546 0.895911 46.7946C-0.670645 40.4881 -0.346849 32.0807 3.18307 26.4162C2.66513 25.5131 2.22147 24.5694 1.85643 23.5945C-1.0648 16.0059 -0.105281 7.31865 3.14587 0Z" fill="var(--fill-0, #002B8F)"/>
<path id="Vector_2" d="M4.95582 1.88136L10.076 1.89671C9.6978 2.58073 9.3063 3.55393 9.02116 4.28792C6.40762 11.014 7.66674 17.747 10.5321 24.1548C14.4339 20.2971 18.6391 16.7301 24.6022 17.2893C31.7757 17.9619 33.9817 26.9662 28.5503 31.3212C25.777 33.5453 23.4777 32.2984 20.4214 31.8657C21.5624 32.7525 22.8901 33.7885 23.9736 34.7183C27.4123 37.67 29.116 41.9419 29.7118 46.3509C29.91 47.8176 29.9842 49.6027 30.0771 51.1161L24.784 51.1174C24.7959 50.3903 24.7983 49.6627 24.7911 48.9356C24.655 42.4378 21.3041 38.4021 16.0975 34.8768C15.114 34.2104 14.143 33.4644 13.0914 32.9016C11.8856 32.2567 10.6214 31.836 9.40906 31.186C9.1121 32.1809 8.73892 33.1385 8.46129 34.1517C7.23659 38.62 7.00949 43.1591 8.48908 47.6066C8.90205 48.8478 9.39643 49.9141 9.89396 51.1193L4.22341 51.118C1.62844 44.0858 0.779702 36.7869 3.66348 29.6751C4.08548 28.6348 4.69701 27.3544 5.33986 26.4399C1.58101 19.9071 1.18231 12.689 3.1607 5.48226C3.42659 4.51367 3.90151 2.8502 4.34366 1.97201C4.52542 1.85111 4.72612 1.88231 4.95582 1.88136Z" fill="var(--fill-0, #F9F2E4)"/>
<path id="Vector_3" d="M22.7438 22.6556C24.5601 22.4388 26.1317 23.6112 25.736 25.5246C25.4916 26.7063 24.8378 27.4154 23.8786 28.0924C21.9902 29.4252 20.1124 29.6823 17.8836 29.2983C16.5225 28.9237 15.7282 28.5131 14.4766 27.908C15.0124 27.4526 15.6557 26.7027 16.1984 26.205C18.1706 24.3965 20.0277 23.0099 22.7438 22.6556Z" fill="var(--fill-0, #002B8F)"/>
<path id="Vector_4" d="M22.7946 24.5428C22.8676 24.5373 22.9406 24.5339 23.0136 24.5325C24.4061 24.5135 23.9872 25.5313 23.2807 26.1515C21.9348 27.3329 20.6727 27.627 18.9554 27.5576C18.5466 27.5279 18.1664 27.422 17.7773 27.3033C19.2965 25.9279 20.7358 24.9175 22.7946 24.5428Z" fill="var(--fill-0, #F9F2E4)"/>
</g>
</svg>
