<svg preserveAspectRatio="none" width="100%" height="100%" overflow="visible" style="display: block;" viewBox="0 0 18 18" fill="none" xmlns="http://www.w3.org/2000/svg">
<g id="restaurant">
<path id="Vector" d="M12 4.5V9C12 9.825 12.675 10.5 13.5 10.5H14.25V15.75C14.25 16.1625 14.5875 16.5 15 16.5C15.4125 16.5 15.75 16.1625 15.75 15.75V2.3475C15.75 1.86 15.2925 1.5 14.82 1.6125C13.2 2.01 12 3.3825 12 4.5ZM8.25 6.75H6.75V2.25C6.75 1.8375 6.4125 1.5 6 1.5C5.5875 1.5 5.25 1.8375 5.25 2.25V6.75H3.75V2.25C3.75 1.8375 3.4125 1.5 3 1.5C2.5875 1.5 2.25 1.8375 2.25 2.25V6.75C2.25 8.4075 3.5925 9.75 5.25 9.75V15.75C5.25 16.1625 5.5875 16.5 6 16.5C6.4125 16.5 6.75 16.1625 6.75 15.75V9.75C8.4075 9.75 9.75 8.4075 9.75 6.75V2.25C9.75 1.8375 9.4125 1.5 9 1.5C8.5875 1.5 8.25 1.8375 8.25 2.25V6.75Z" fill="var(--fill-0, #002B8F)"/>
</g>
</svg>
