<svg preserveAspectRatio="none" width="100%" height="100%" overflow="visible" style="display: block;" viewBox="0 0 18 18" fill="none" xmlns="http://www.w3.org/2000/svg">
<g id="science">
<path id="Vector" d="M15.405 13.2975L11.25 8.25V3.75H12C12.4125 3.75 12.75 3.4125 12.75 3C12.75 2.5875 12.4125 2.25 12 2.25H6C5.5875 2.25 5.25 2.5875 5.25 3C5.25 3.4125 5.5875 3.75 6 3.75H6.75V8.25L2.595 13.2975C2.355 13.59 2.25 13.92 2.25 14.25C2.2575 15.0225 2.865 15.75 3.75 15.75H14.25C15.1425 15.75 15.75 15.0225 15.75 14.25C15.75 13.92 15.645 13.59 15.405 13.2975Z" fill="var(--fill-0, #002B8F)"/>
</g>
</svg>
