<svg preserveAspectRatio="none" width="100%" height="100%" overflow="visible" style="display: block;" viewBox="0 0 20 20" fill="none" xmlns="http://www.w3.org/2000/svg">
<g id="science">
<path id="Vector" d="M17.1167 14.775L12.5 9.16667V4.16667H13.3333C13.7917 4.16667 14.1667 3.79167 14.1667 3.33333C14.1667 2.875 13.7917 2.5 13.3333 2.5H6.66667C6.20833 2.5 5.83333 2.875 5.83333 3.33333C5.83333 3.79167 6.20833 4.16667 6.66667 4.16667H7.5V9.16667L2.88333 14.775C2.61667 15.1 2.5 15.4667 2.5 15.8333C2.50833 16.6917 3.18333 17.5 4.16667 17.5H15.8333C16.825 17.5 17.5 16.6917 17.5 15.8333C17.5 15.4667 17.3833 15.1 17.1167 14.775Z" fill="var(--fill-0, #002B8F)"/>
</g>
</svg>
