<svg preserveAspectRatio="none" width="100%" height="100%" overflow="visible" style="display: block;" viewBox="0 0 16 16" fill="none" xmlns="http://www.w3.org/2000/svg">
<g id="science">
<path id="Vector" d="M13.6933 11.82L10 7.33333V3.33333H10.6667C11.0333 3.33333 11.3333 3.03333 11.3333 2.66667C11.3333 2.3 11.0333 2 10.6667 2H5.33333C4.96667 2 4.66667 2.3 4.66667 2.66667C4.66667 3.03333 4.96667 3.33333 5.33333 3.33333H6V7.33333L2.30667 11.82C2.09333 12.08 2 12.3733 2 12.6667C2.00667 13.3533 2.54667 14 3.33333 14H12.6667C13.46 14 14 13.3533 14 12.6667C14 12.3733 13.9067 12.08 13.6933 11.82Z" fill="var(--fill-0, #737373)"/>
</g>
</svg>
