<svg preserveAspectRatio="none" width="100%" height="100%" overflow="visible" style="display: block;" viewBox="0 0 18 18" fill="none" xmlns="http://www.w3.org/2000/svg">
<g id="search" clip-path="url(#clip0_0_82)">
<g id="Vector">
</g>
<path id="Vector_2" d="M11.625 10.5H11.0325L10.8225 10.2975C11.7225 9.2475 12.1875 7.815 11.9325 6.2925C11.58 4.2075 9.84 2.5425 7.74 2.2875C4.5675 1.8975 1.8975 4.5675 2.2875 7.74C2.5425 9.84 4.2075 11.58 6.2925 11.9325C7.815 12.1875 9.2475 11.7225 10.2975 10.8225L10.5 11.0325V11.625L13.6875 14.8125C13.995 15.12 14.4975 15.12 14.805 14.8125C15.1125 14.505 15.1125 14.0025 14.805 13.695L11.625 10.5ZM7.125 10.5C5.2575 10.5 3.75 8.9925 3.75 7.125C3.75 5.2575 5.2575 3.75 7.125 3.75C8.9925 3.75 10.5 5.2575 10.5 7.125C10.5 8.9925 8.9925 10.5 7.125 10.5Z" fill="var(--fill-0, #737373)"/>
</g>
<defs>
<clipPath id="clip0_0_82">
<rect width="18" height="18" fill="white"/>
</clipPath>
</defs>
</svg>
