<svg preserveAspectRatio="none" width="100%" height="100%" overflow="visible" style="display: block;" viewBox="0 0 20 20" fill="none" xmlns="http://www.w3.org/2000/svg">
<g id="search">
<path id="Vector" d="M13.3138 12.0596H12.6555L12.4221 11.8346C13.4221 10.668 13.9388 9.0763 13.6555 7.38464C13.2638 5.06797 11.3305 3.21797 8.99714 2.93464C5.47214 2.5013 2.50547 5.46797 2.9388 8.99297C3.22214 11.3263 5.07214 13.2596 7.3888 13.6513C9.08047 13.9346 10.6721 13.418 11.8388 12.418L12.0638 12.6513V13.3096L15.6055 16.8513C15.9471 17.193 16.5055 17.193 16.8471 16.8513C17.1888 16.5096 17.1888 15.9513 16.8471 15.6096L13.3138 12.0596ZM8.3138 12.0596C6.2388 12.0596 4.5638 10.3846 4.5638 8.30964C4.5638 6.23464 6.2388 4.55964 8.3138 4.55964C10.3888 4.55964 12.0638 6.23464 12.0638 8.30964C12.0638 10.3846 10.3888 12.0596 8.3138 12.0596Z" fill="var(--fill-0, #002B8F)"/>
</g>
</svg>
