<svg preserveAspectRatio="none" width="100%" height="100%" overflow="visible" style="display: block;" viewBox="0 0 18 18" fill="none" xmlns="http://www.w3.org/2000/svg">
<g id="search">
<path id="Vector" d="M11.9824 10.8537H11.3899L11.1799 10.6512C12.0799 9.60117 12.5449 8.16867 12.2899 6.64617C11.9374 4.56117 10.1974 2.89617 8.09742 2.64117C4.92492 2.25117 2.25492 4.92117 2.64492 8.09367C2.89992 10.1937 4.56492 11.9337 6.64992 12.2862C8.17242 12.5412 9.60492 12.0762 10.6549 11.1762L10.8574 11.3862V11.9787L14.0449 15.1662C14.3524 15.4737 14.8549 15.4737 15.1624 15.1662C15.4699 14.8587 15.4699 14.3562 15.1624 14.0487L11.9824 10.8537ZM7.48242 10.8537C5.61492 10.8537 4.10742 9.34617 4.10742 7.47867C4.10742 5.61117 5.61492 4.10367 7.48242 4.10367C9.34992 4.10367 10.8574 5.61117 10.8574 7.47867C10.8574 9.34617 9.34992 10.8537 7.48242 10.8537Z" fill="var(--fill-0, #737373)"/>
</g>
</svg>
