<svg preserveAspectRatio="none" width="100%" height="100%" overflow="visible" style="display: block;" viewBox="0 0 18 18" fill="none" xmlns="http://www.w3.org/2000/svg">
<g id="sentiment_satisfied">
<g id="Vector">
<path d="M11.625 8.25C12.2463 8.25 12.75 7.74632 12.75 7.125C12.75 6.50368 12.2463 6 11.625 6C11.0037 6 10.5 6.50368 10.5 7.125C10.5 7.74632 11.0037 8.25 11.625 8.25Z" fill="var(--fill-0, #002B8F)"/>
<path d="M6.375 8.25C6.99632 8.25 7.5 7.74632 7.5 7.125C7.5 6.50368 6.99632 6 6.375 6C5.75368 6 5.25 6.50368 5.25 7.125C5.25 7.74632 5.75368 8.25 6.375 8.25Z" fill="var(--fill-0, #002B8F)"/>
<path d="M8.9925 1.5C4.8525 1.5 1.5 4.86 1.5 9C1.5 13.14 4.8525 16.5 8.9925 16.5C13.14 16.5 16.5 13.14 16.5 9C16.5 4.86 13.14 1.5 8.9925 1.5ZM9 15C5.685 15 3 12.315 3 9C3 5.685 5.685 3 9 3C12.315 3 15 5.685 15 9C15 12.315 12.315 15 9 15ZM12.3075 10.4175C12.045 10.2525 11.6925 10.335 11.535 10.5975C10.98 11.475 10.035 12 9 12C7.965 12 7.02 11.475 6.465 10.59C6.3 10.3275 5.955 10.245 5.6925 10.41C5.43 10.575 5.3475 10.92 5.5125 11.1825C6.2775 12.405 7.575 13.125 9 13.125C10.425 13.125 11.7225 12.3975 12.4875 11.19C12.6525 10.9275 12.57 10.5825 12.3075 10.4175Z" fill="var(--fill-0, #002B8F)"/>
</g>
</g>
</svg>
