<svg preserveAspectRatio="none" width="100%" height="100%" overflow="visible" style="display: block;" viewBox="0 0 15 15" fill="none" xmlns="http://www.w3.org/2000/svg">
<g id="sort">
<path id="Vector" d="M2.5 11.25H5C5.34375 11.25 5.625 10.9688 5.625 10.625C5.625 10.2812 5.34375 10 5 10H2.5C2.15625 10 1.875 10.2812 1.875 10.625C1.875 10.9688 2.15625 11.25 2.5 11.25ZM1.875 4.375C1.875 4.71875 2.15625 5 2.5 5H12.5C12.8438 5 13.125 4.71875 13.125 4.375C13.125 4.03125 12.8438 3.75 12.5 3.75H2.5C2.15625 3.75 1.875 4.03125 1.875 4.375ZM2.5 8.125H8.75C9.09375 8.125 9.375 7.84375 9.375 7.5C9.375 7.15625 9.09375 6.875 8.75 6.875H2.5C2.15625 6.875 1.875 7.15625 1.875 7.5C1.875 7.84375 2.15625 8.125 2.5 8.125Z" fill="var(--fill-0, #002B8F)"/>
</g>
</svg>
