<svg preserveAspectRatio="none" width="100%" height="100%" overflow="visible" style="display: block;" viewBox="0 0 15 15" fill="none" xmlns="http://www.w3.org/2000/svg">
<g id="thumb_up">
<path id="Vector" d="M8.09313 1.71992L4.63063 5.18242C4.39938 5.41367 4.26813 5.73242 4.26813 6.06367V12.3074C4.26813 12.9949 4.83063 13.5574 5.51813 13.5574H11.1431C11.6431 13.5574 12.0931 13.2574 12.2931 12.8012L14.3306 8.04492C14.8556 6.80742 13.9494 5.43242 12.6056 5.43242H9.07438L9.66813 2.56992C9.73063 2.25742 9.63688 1.93867 9.41188 1.71367C9.04313 1.35117 8.45563 1.35117 8.09313 1.71992ZM1.76813 13.5574C2.45563 13.5574 3.01813 12.9949 3.01813 12.3074V7.30742C3.01813 6.61992 2.45563 6.05742 1.76813 6.05742C1.08063 6.05742 0.518132 6.61992 0.518132 7.30742V12.3074C0.518132 12.9949 1.08063 13.5574 1.76813 13.5574Z" fill="var(--fill-0, #737373)"/>
</g>
</svg>
