<svg preserveAspectRatio="none" width="100%" height="100%" overflow="visible" style="display: block;" viewBox="0 0 15 15" fill="none" xmlns="http://www.w3.org/2000/svg">
<g id="tips_and_updates" clip-path="url(#clip0_0_193)">
<path id="Vector" d="M3.90625 13.125H6.40625C6.40625 13.8125 5.84375 14.375 5.15625 14.375C4.46875 14.375 3.90625 13.8125 3.90625 13.125ZM2.65625 11.875C2.65625 12.2188 2.9375 12.5 3.28125 12.5H7.03125C7.375 12.5 7.65625 12.2188 7.65625 11.875C7.65625 11.5312 7.375 11.25 7.03125 11.25H3.28125C2.9375 11.25 2.65625 11.5312 2.65625 11.875ZM9.84375 6.5625C9.84375 8.95 8.18125 10.225 7.4875 10.625H2.825C2.13125 10.225 0.46875 8.95 0.46875 6.5625C0.46875 3.975 2.56875 1.875 5.15625 1.875C7.74375 1.875 9.84375 3.975 9.84375 6.5625ZM12.8875 5.23125L12.0312 5.625L12.8875 6.01875L13.2812 6.875L13.675 6.01875L14.5312 5.625L13.675 5.23125L13.2812 4.375L12.8875 5.23125ZM11.4062 4.375L11.9938 3.0875L13.2812 2.5L11.9938 1.9125L11.4062 0.625L10.8187 1.9125L9.53125 2.5L10.8187 3.0875L11.4062 4.375Z" fill="var(--fill-0, white)"/>
</g>
<defs>
<clipPath id="clip0_0_193">
<rect width="15" height="15" fill="white"/>
</clipPath>
</defs>
</svg>
