<svg preserveAspectRatio="none" width="100%" height="100%" overflow="visible" style="display: block;" viewBox="0 0 14 14" fill="none" xmlns="http://www.w3.org/2000/svg">
<g id="trending_up">
<path id="Vector" d="M9.71022 4.11469L10.5502 4.95469L7.70355 7.80135L5.78438 5.88219C5.55688 5.65469 5.18938 5.65469 4.96188 5.88219L1.46188 9.38802C1.23438 9.61552 1.23438 9.98302 1.46188 10.2105C1.68938 10.438 2.05688 10.438 2.28438 10.2105L5.37022 7.11885L7.28938 9.03802C7.51688 9.26552 7.88438 9.26552 8.11188 9.03802L11.3727 5.78302L12.2127 6.62302C12.3935 6.80385 12.7085 6.67552 12.7085 6.41885V3.91052C12.7144 3.74719 12.5861 3.61885 12.4227 3.61885H9.92022C9.65772 3.61885 9.52938 3.93385 9.71022 4.11469Z" fill="var(--fill-0, white)"/>
</g>
</svg>
