<svg preserveAspectRatio="none" width="100%" height="100%" overflow="visible" style="display: block;" viewBox="0 0 22 22" fill="none" xmlns="http://www.w3.org/2000/svg">
<g id="vaccines">
<path id="Vector" d="M6.875 20.3958C7.37917 20.3958 7.79167 19.9833 7.79167 19.4792V15.3542H8.70833C9.71667 15.3542 10.5417 14.5292 10.5417 13.5208V6.64583C11.0458 6.64583 11.4583 6.23333 11.4583 5.72917C11.4583 5.225 11.0458 4.8125 10.5417 4.8125H7.79167V3.4375H8.25C8.75417 3.4375 9.16667 3.025 9.16667 2.52083C9.16667 2.01667 8.75417 1.60417 8.25 1.60417H5.5C4.99583 1.60417 4.58333 2.01667 4.58333 2.52083C4.58333 3.025 4.99583 3.4375 5.5 3.4375H5.95833V4.8125H3.20833C2.70417 4.8125 2.29167 5.225 2.29167 5.72917C2.29167 6.23333 2.70417 6.64583 3.20833 6.64583V13.5208C3.20833 14.5292 4.03333 15.3542 5.04167 15.3542H5.95833V19.4792C5.95833 19.9833 6.37083 20.3958 6.875 20.3958ZM8.70833 8.02083H7.10417C6.72833 8.02083 6.41667 8.3325 6.41667 8.70833C6.41667 9.08417 6.72833 9.39583 7.10417 9.39583H8.70833V10.7708H7.10417C6.72833 10.7708 6.41667 11.0825 6.41667 11.4583C6.41667 11.8342 6.72833 12.1458 7.10417 12.1458H8.70833V13.5208H5.04167V6.64583H8.70833V8.02083ZM18.3333 9.39583V8.9375C18.8375 8.9375 19.25 8.525 19.25 8.02083C19.25 7.51667 18.8375 7.10417 18.3333 7.10417H13.75C13.2458 7.10417 12.8333 7.51667 12.8333 8.02083C12.8333 8.525 13.2458 8.9375 13.75 8.9375V9.39583C13.75 9.85417 12.375 10.4592 12.375 12.1458V18.1042C12.375 19.1125 13.2 19.9375 14.2083 19.9375H17.875C18.8833 19.9375 19.7083 19.1125 19.7083 18.1042V12.1458C19.7083 10.4592 18.3333 9.85417 18.3333 9.39583ZM15.5833 9.39583V8.9375H16.5V9.39583C16.5 10.8625 17.875 11.2292 17.875 12.1458V12.6042H14.2083C14.2083 12.4117 14.2083 12.2467 14.2083 12.1458C14.2083 11.2292 15.5833 10.8625 15.5833 9.39583ZM14.2083 18.1042C14.2083 18.1042 14.2083 17.5267 14.2083 16.7292H17.875V18.1042H14.2083Z" fill="var(--fill-0, #002B8F)"/>
</g>
</svg>
