<svg preserveAspectRatio="none" width="100%" height="100%" overflow="visible" style="display: block;" viewBox="0 0 16 16" fill="none" xmlns="http://www.w3.org/2000/svg">
<g id="verified">
<path id="Vector" d="M15.3333 8L13.7067 6.14L13.9333 3.68L11.5267 3.13333L10.2667 1L8 1.97333L5.73333 1L4.47333 3.12667L2.06667 3.66667L2.29333 6.13333L0.666667 8L2.29333 9.86L2.06667 12.3267L4.47333 12.8733L5.73333 15L8 14.02L10.2667 14.9933L11.5267 12.8667L13.9333 12.32L13.7067 9.86L15.3333 8ZM6.25333 10.6733L4.66667 9.07333C4.40667 8.81333 4.40667 8.39333 4.66667 8.13333L4.71333 8.08667C4.97333 7.82667 5.4 7.82667 5.66 8.08667L6.73333 9.16667L10.1667 5.72667C10.4267 5.46667 10.8533 5.46667 11.1133 5.72667L11.16 5.77333C11.42 6.03333 11.42 6.45333 11.16 6.71333L7.21333 10.6733C6.94 10.9333 6.52 10.9333 6.25333 10.6733Z" fill="var(--fill-0, #002B8F)"/>
</g>
</svg>
