<svg preserveAspectRatio="none" width="100%" height="100%" overflow="visible" style="display: block;" viewBox="0 0 22 22" fill="none" xmlns="http://www.w3.org/2000/svg">
<g id="warning_amber">
<path id="Vector" d="M11 5.03594L17.9025 16.9618H4.0975L11 5.03594ZM2.51167 16.0451C1.80583 17.2643 2.68583 18.7951 4.0975 18.7951H17.9025C19.3142 18.7951 20.1942 17.2643 19.4883 16.0451L12.5858 4.11927C11.88 2.9001 10.12 2.9001 9.41417 4.11927L2.51167 16.0451ZM10.0833 9.62844V11.4618C10.0833 11.9659 10.4958 12.3784 11 12.3784C11.5042 12.3784 11.9167 11.9659 11.9167 11.4618V9.62844C11.9167 9.12427 11.5042 8.71177 11 8.71177C10.4958 8.71177 10.0833 9.12427 10.0833 9.62844ZM10.0833 14.2118H11.9167V16.0451H10.0833V14.2118Z" fill="var(--fill-0, #002B8F)"/>
</g>
</svg>
