<svg preserveAspectRatio="none" width="100%" height="100%" overflow="visible" style="display: block;" viewBox="0 0 13 13" fill="none" xmlns="http://www.w3.org/2000/svg">
<g id="watch">
<path id="Vector" d="M10.8333 6.5C10.8333 5.12417 10.1887 3.89458 9.18667 3.10375L8.81833 0.904583C8.73167 0.384583 8.27667 0 7.75125 0H5.25417C4.72333 0 4.26833 0.384583 4.18167 0.904583L3.81875 3.10375C2.81125 3.89458 2.16667 5.11875 2.16667 6.5C2.16667 7.88125 2.81125 9.10542 3.81875 9.89625L4.18167 12.0954C4.26833 12.6154 4.72333 13 5.25417 13H7.75125C8.28208 13 8.73167 12.6154 8.81833 12.0954L9.18667 9.89625C10.1887 9.10542 10.8333 7.87583 10.8333 6.5ZM3.25 6.5C3.25 4.70708 4.70708 3.25 6.5 3.25C8.29292 3.25 9.75 4.70708 9.75 6.5C9.75 8.29292 8.29292 9.75 6.5 9.75C4.70708 9.75 3.25 8.29292 3.25 6.5Z" fill="var(--fill-0, #737373)"/>
</g>
</svg>
