<svg preserveAspectRatio="none" width="100%" height="100%" overflow="visible" style="display: block;" viewBox="0 0 30 30" fill="none" xmlns="http://www.w3.org/2000/svg">
<g id="water_drop">
<path id="Vector" d="M15.825 3.01719C15.35 2.60469 14.6375 2.60469 14.1625 3.01719C8.0625 8.39219 5 13.0672 5 17.0422C5 23.2672 9.75 27.2922 15 27.2922C20.25 27.2922 25 23.2672 25 17.0422C25 13.0672 21.9375 8.39219 15.825 3.01719ZM9.7875 17.2922C10.25 17.2922 10.625 17.6172 10.7125 18.0672C11.225 20.8422 13.5625 21.7922 15.2625 21.6547C15.8 21.6297 16.25 22.0547 16.25 22.5922C16.25 23.0922 15.85 23.5047 15.35 23.5297C12.6875 23.6922 9.575 22.1672 8.8625 18.3797C8.7625 17.8172 9.2125 17.2922 9.7875 17.2922Z" fill="var(--fill-0, white)"/>
</g>
</svg>
