<svg preserveAspectRatio="none" width="100%" height="100%" overflow="visible" style="display: block;" viewBox="0 0 18 18" fill="none" xmlns="http://www.w3.org/2000/svg">
<g id="water_drop">
<path id="Vector" d="M9.495 1.81031C9.21 1.56281 8.7825 1.56281 8.4975 1.81031C4.8375 5.03531 3 7.84031 3 10.2253C3 13.9603 5.85 16.3753 9 16.3753C12.15 16.3753 15 13.9603 15 10.2253C15 7.84031 13.1625 5.03531 9.495 1.81031ZM5.8725 10.3753C6.15 10.3753 6.375 10.5703 6.4275 10.8403C6.735 12.5053 8.1375 13.0753 9.1575 12.9928C9.48 12.9778 9.75 13.2328 9.75 13.5553C9.75 13.8553 9.51 14.1028 9.21 14.1178C7.6125 14.2153 5.745 13.3003 5.3175 11.0278C5.2575 10.6903 5.5275 10.3753 5.8725 10.3753Z" fill="var(--fill-0, #002B8F)"/>
</g>
</svg>
