<svg preserveAspectRatio="none" width="100%" height="100%" overflow="visible" style="display: block;" viewBox="0 0 16 16" fill="none" xmlns="http://www.w3.org/2000/svg">
<g id="water_drop">
<path id="Vector" d="M8.44 1.60917C8.18667 1.38917 7.80667 1.38917 7.55333 1.60917C4.3 4.47583 2.66667 6.96917 2.66667 9.08917C2.66667 12.4092 5.2 14.5558 8 14.5558C10.8 14.5558 13.3333 12.4092 13.3333 9.08917C13.3333 6.96917 11.7 4.47583 8.44 1.60917ZM5.22 9.2225C5.46667 9.2225 5.66667 9.39583 5.71333 9.63583C5.98667 11.1158 7.23333 11.6225 8.14 11.5492C8.42667 11.5358 8.66667 11.7625 8.66667 12.0492C8.66667 12.3158 8.45333 12.5358 8.18667 12.5492C6.76667 12.6358 5.10667 11.8225 4.72667 9.8025C4.67333 9.5025 4.91333 9.2225 5.22 9.2225Z" fill="var(--fill-0, #002B8F)"/>
</g>
</svg>
